<?xml version="1.0" standalone="no"?>
<svg width="1080" height="1620" xmlns="http://www.w3.org/2000/svg" xmlns:xlink="http://www.w3.org/1999/xlink" >
<title>New Draw - UGEE NOTE SVG</title>
<desc>An SVG drawing created by UGEE Note. http://cloud.ugee.com(.cn)</desc>		<g fill="#B42AAF" fill-opacity="1" stroke="none"><!-- points_control:30-->
<polygon points="284.63971994098,417.63971994098 284.56704604631,418.06785441094 284.07494242406,419.19099546107 283.07633166109,420.85417306509 281.63868404402,422.95508572109 279.84596764249,425.40154180823 277.76767521965,428.09248187408 275.46077269536,430.92151264903 273.00807207214,433.97426010089 270.42042113751,436.81072508002 267.88557288007,440.64314684115 264.4811880608,443.47942926176 261.93034467502,446.33970795772 259.40629123999,449.20402714993 256.89845756043,452.07764116382 254.43823305822,455.15109189159 251.59875726461,458.06562584528 249.13629435581,460.97572504494 246.69791444387,463.83961768195 244.26444554229,466.60642099257 241.94877962434,470.03308364788 239.1177071528,472.48810267711 236.91631980375,474.78963777747 234.83838901848,476.88836732665 232.93970009606,478.74372705873 231.28190757195,480.34394595964 229.90986469666,481.68287743592 228.83468458094,482.78418100504 228.03729392374,483.69869461734 227.53905428877,484.52398789543 226.84466385,484.84466385 227.15533615,485.15533615 227.84972658878,484.83466019543 228.59275536996,484.25415606357 229.39252030132,483.34201672542 230.44536425952,482.21837699878 231.80236900319,480.86440739088 233.45514647886,479.25917344153 235.35597144009,477.40594974826 237.44189053989,475.31520851362 239.65218091835,473.02257644266 242.43890281218,470.52320683571 244.87020194253,467.21217739281 247.25853179098,464.40023502907 249.70019934787,461.539630037 252.16427679119,458.63114537186 254.97184720331,455.68470603668 257.47350334235,452.65268694574 259.96596621602,449.76370212596 262.48660043517,446.89596371787 265.03448264802,444.03272384897 268.36641050039,441.12398446147 271.03035643424,437.42066037675 273.56072739589,434.52691542464 276.03649799364,431.49723794731 278.34206887414,428.66687552858 280.43139041835,425.98696458409 282.23525961353,423.5516612906 283.68632205088,421.46416345487 284.70719709044,419.82325012745 285.23917684845,418.73998521307 285.36028005902,418.36028005902 " fill="#000000" fill-opacity="1" stroke="#000000"  style="fill-rule:nonzero;" stroke-linejoin="round" /></g>		<g fill="#000000" fill-opacity="1" stroke="none"><!-- points_control:5-->
<polygon points="226.68086944401,484.68086944401 226.49787340176,485.36187340176 225.75086764539,484.90286764539 225.5445341076,484.5525341076 225.4885341076,484.0645341076 226.5274658924,485.1034658924 226.5834658924,485.5914658924 226.68113235461,485.83313235461 226.52612659824,485.39012659824 227.31913055599,485.31913055599 " fill="#000000" fill-opacity="1" stroke="#000000"  style="fill-rule:nonzero;" stroke-linejoin="round" /></g>		<g fill="#000000" fill-opacity="1" stroke="none"><!-- points_control:30-->
<polygon points="234.95687884647,479.95687884647 235.21336899877,480.73648137385 235.67308165627,481.76324687483 236.20768491068,483.33462770335 236.77692116905,485.45982110045 237.34556334346,488.05331298235 237.89149168493,490.99834207004 238.40758563185,494.18567589496 238.89519311269,498.25266792766 239.33513886663,501.75616811062 239.7885100819,505.49083863192 240.01897392701,509.03279501112 240.56193011841,512.5585319068 240.89701577454,516.0321379377 241.19622025697,519.41656302173 241.46087688199,523.12367665014 241.69526541898,526.13172301234 241.90703704339,528.97695658226 242.10552551433,531.64019956117 242.29866558613,534.0986696872 242.49056796944,536.75397424641 242.68137095835,538.59537015593 242.87280356621,540.15217958313 243.07537298091,541.40646965809 243.31583005802,542.3159691151 243.65097367347,542.83203772444 244.02029800991,542.75978629574 244.54287277999,542.04690141488 245.21462358913,540.48804739336 246.03956917872,537.87226209768 247.95926325727,533.95926325727 248.04073674273,534.04073674273 246.12104266418,537.95373558314 245.3012033784,540.57462718263 244.62616822665,542.13019686153 244.09303856033,542.83252684617 243.66007428596,542.84113833692 243.39279478387,542.39293384095 243.16320365848,541.49430033565 242.96240104465,540.24177706156 242.77144401858,538.68544321617 242.58083511127,536.84424138824 242.38917979114,534.1891838922 242.19599669966,531.73067074649 241.99753608321,529.06745562208 241.78576508763,526.22222268098 241.55135260531,523.21415237346 241.28673990738,519.50708267214 240.98741307305,516.12253523621 240.65226072023,512.64886250863 240.10866557718,509.12248666129 239.87906925729,505.58139780732 239.42522688784,501.84625613183 238.98523590043,498.34271071541 238.49769040695,494.27578067006 237.98107395744,491.08792434254 237.43479240505,488.14254204394 236.86556380942,485.54846374082 236.29534109706,483.42228388972 235.75898608723,481.84915130579 235.29617036659,480.81928274168 235.04312115353,480.04312115353 " fill="#000000" fill-opacity="1" stroke="#000000"  style="fill-rule:nonzero;" stroke-linejoin="round" /></g>		<circle cx="248" cy="534" r="0.22575" fill="#000000" fill-opacity="1" stroke="none"/>		<circle cx="249" cy="531" r="0.01" fill="#000000" fill-opacity="1" stroke="none"/>		<g fill="#000000" fill-opacity="1" stroke="none"><!-- points_control:30-->
<polygon points="255.80724031669,489.80724031669 256.05667656657,487.26613492061 256.43467787722,486.04593944503 256.87336455261,484.82963952346 257.51092329691,483.42442851957 258.48076432273,481.73574896143 259.85927637755,479.74268048439 261.6766716719,477.47699122235 264.22097596248,474.88189229519 266.99343980757,472.17864551966 270.28805458456,469.35458934317 273.61467013946,465.83549427764 277.24412354319,463.06947606804 280.98189680124,460.38388598259 284.85791871164,457.81663124598 289.49233201967,455.3353358254 293.46517824718,452.53570313387 297.43544626307,450.32247295753 301.58500332079,448.27153926352 305.3694470604,446.41450690363 309.21765423928,444.73997756294 312.78916098687,443.21160368891 316.16199192437,441.92114834423 319.57372943107,440.74876318464 322.24259515467,439.70351695192 324.57491492708,438.76893967507 326.56813123911,437.94410950363 328.22703617389,437.2351543858 329.55879467906,436.64104028248 330.57658839396,436.22006427005 331.9650174736,435.9650174736 332.0349825264,436.0349825264 330.64655344675,436.29002932284 329.72810820971,436.81035381314 328.38260726742,437.39072547933 326.71980872814,438.09578699266 324.72255066531,438.9165754133 322.38626669882,439.84718849608 319.71473187611,440.88976562968 316.28679692494,442.0459533448 312.92848058748,443.35092328952 309.37084278522,444.89316610888 305.52404026037,446.5691001036 301.75653057409,448.44306651682 297.60703505099,450.49406174545 293.65463773759,452.72516262427 289.71699712349,455.56000092922 285.03877990108,457.99749243542 281.19740306448,460.59939224583 277.47060804022,463.29596056506 273.84980820756,466.07063234574 270.57133143977,469.63786619837 267.24389304484,472.42909875692 264.49237877855,475.15329511126 261.95347637311,477.75379592356 260.16291870177,480.04632280862 258.80025374431,482.05523838301 257.84790581497,483.76141103763 257.22715623509,485.18343120595 256.79967985125,486.41094141907 256.42687340364,487.63633175768 256.19275968331,490.19275968331 " fill="#000000" fill-opacity="1" stroke="#000000"  style="fill-rule:nonzero;" stroke-linejoin="round" /></g>		<g fill="#000000" fill-opacity="1" stroke="none"><!-- points_control:32-->
<polygon points="331.99106481117,435.99106481117 332.57033679528,435.90416735804 332.93046763446,435.92349681107 333.3451849903,436.30917554411 333.81718096965,437.1045862198 334.3460893228,438.31581747718 334.94685064169,439.94643659141 335.62738410233,442.00484451238 336.39542786906,444.76581169347 337.23727989949,447.77016339313 338.14681216097,451.20663240902 339.12571791823,455.32600859969 340.17158198684,459.56703897871 341.2921058583,464.38690216358 342.49254123085,469.72039752228 343.77978702863,475.30070017527 345.68826779477,481.84933248103 347.22507863739,488.15893046713 348.83952477303,494.81351337564 350.52522239962,501.98753473734 352.27089474565,509.51875687613 354.05400180852,516.62678257253 355.85373768481,523.98829879512 357.64272065999,531.2897397677 359.39270762221,538.35176792211 361.07297432421,544.81226270466 362.65686963229,550.86412822368 364.12622739847,556.66897027732 365.46365082961,561.5788942791 366.66291601369,565.75916919219 367.73442666067,569.36576151798 368.70895841108,572.36512454267 369.41155281499,573.06771894658 368.43702106458,570.06835592189 367.37118014657,566.46743332507 366.17378636277,562.28902981226 364.83904321623,557.38178609509 363.37306959691,551.58032818831 361.78763645538,545.52692483583 360.10767504026,539.06673534017 358.35980153297,532.00682064068 356.57126755278,524.70582866309 354.77161784191,517.34439860591 352.98743297412,510.2352951046 351.24491787346,502.70723021118 349.55868366092,495.53267226353 347.94299123956,488.8768430693 346.40603234492,482.56709703118 344.48894303317,476.00985617981 343.21250472597,470.4403610174 342.01283460235,465.10763090763 340.89112780283,460.28658479471 339.84294546728,456.04323614874 338.86557019861,451.92539044666 337.95135103798,448.48423453162 337.1067169837,445.47710080811 336.33911995493,442.71658036498 335.64789801233,440.64748396205 335.03893247264,439.00866062702 334.49323338005,437.78063863021 333.97745836628,436.94144892009 333.4362294071,436.4292585837 332.79504024553,436.12887080829 332.00893518883,436.00893518883 " fill="#000000" fill-opacity="1" stroke="#000000"  style="fill-rule:nonzero;" stroke-linejoin="round" /></g>		<g fill="#000000" fill-opacity="1" stroke="none"><!-- points_control:32-->
<polygon points="369.39477615526,575.39477615526 369.64108452114,576.33960946756 369.8932701754,577.22600258862 370.01366770579,578.10952311941 370.13717260269,579.06438130118 369.31858064228,579.05204694001 368.0889845126,578.55304113075 366.47542803636,577.59082922315 364.44091129906,576.11193348122 361.69561463791,573.86474541781 358.73756830747,571.19335859362 355.11887888192,567.64061956258 351.67748041012,563.74855752047 347.76357153375,559.32656893896 343.89039593611,554.41419281373 339.91606484064,549.22526326529 335.89350367287,543.81944074152 331.19751069209,537.51108554083 327.14828275354,532.02173351848 323.14536109717,526.5183567145 318.97749807684,521.11354084327 315.15874105233,516.11425361701 311.32481962607,510.99172645585 307.68150075936,506.65388741189 304.18849500537,502.65218649104 300.33657819727,498.61985297364 297.34967300048,495.06849180631 294.62468514535,491.95200523841 292.1969373196,489.08802108192 290.10452252959,486.49867144968 288.38344929853,484.28538946487 287.09844390944,482.60646873666 288.09027611063,483.59830093786 289.37528149972,485.27722166607 291.09064030924,487.48478922933 293.16865349902,490.05973726134 295.57767115459,492.90499124765 298.29004963474,496.00886844057 301.29228357366,499.57555835003 305.09177689354,503.55546837922 308.62218124636,507.59456789889 312.28110023806,511.94800706784 316.15818151102,517.11369407569 319.97013286706,522.10617563349 324.13447144715,527.50746706448 328.15810738434,533.03155814928 332.20269017271,538.51626502144 336.89541798321,544.82135505186 340.9180863421,550.22728476675 344.88207700261,555.40587388023 348.74448765481,560.30748506001 352.61302647955,564.6841035899 356.05456305362,568.57630373429 359.61251574254,572.06830602868 362.53241239531,574.70154317521 365.2311446487,576.90216683087 367.20716965783,578.32257084462 368.71810921911,579.18216583727 369.72886440452,579.46233070225 370.31748463483,579.24469333331 371.07611188977,579.17196730339 371.14151547804,578.47424789127 370.8355631375,577.53408808392 370.60522384474,576.60522384474 " fill="#000000" fill-opacity="1" stroke="#000000"  style="fill-rule:nonzero;" stroke-linejoin="round" /></g>		<g fill="#000000" fill-opacity="1" stroke="none"><!-- points_control:32-->
<polygon points="286.62629947784,481.62629947784 285.64514538494,480.10165319709 285.70818248571,480.21846685699 285.95158458199,480.87551920966 286.29846068612,481.8538885817 286.69818850703,483.00983096336 287.10618761198,484.23453567796 287.48619213444,485.45457493194 287.81165628722,486.63113580504 288.0676076147,487.75485322648 288.2502074592,488.83572923776 288.36343366215,489.8899276621 288.41534328309,490.92766455539 288.41635033078,491.94286453409 288.38034543371,492.90762295401 288.32745009153,493.77055765724 288.35044449702,494.6983657977 288.77345040435,495.37808120423 288.76328277483,495.19791897271 289.12600357724,494.77722131963 289.77472826187,493.95254139999 290.6986799645,492.69767544593 292.02562899038,490.78999785176 293.60091169309,488.89807057476 295.51796078985,486.85032033054 297.67974519568,484.74956014909 300.10359361894,482.66940851206 302.77495878538,480.67908281295 305.66678135237,478.85524324193 308.71475373182,477.28703189596 311.78699746255,476.06384285218 314.60474951477,475.21096385013 314.86236600567,475.46858034103 312.04461395345,476.32145934309 309.05756524283,477.62984340696 306.08540365448,479.27386554404 303.25928972591,481.16341375349 300.64313232124,483.20894721436 298.26577278213,485.33558773553 296.14358696109,487.47594650178 294.25431899471,489.55147787638 292.71478092305,491.47914978443 291.43591042033,493.43490590176 290.48417057406,494.66198371218 289.8187170572,495.46993479959 289.36524643774,495.79988263561 288.93689504171,495.54152584158 289.21997647412,495.5678977748 289.21660843626,494.65971600196 289.26797989,493.7952574103 289.30496413905,492.83147834235 289.30459307812,491.81691435043 289.25155011273,490.77804411268 289.13420773826,489.71972951681 288.94401103158,488.63125664336 288.6780527333,487.49753225112 288.34257725941,486.31096005691 287.95467056473,485.08301863071 287.54149773253,483.85314018886 287.13865185131,482.69407974689 286.78951960742,481.71345423509 286.54144858367,481.05173295495 286.3827553847,480.83926319685 287.37370052216,482.37370052216 " fill="#000000" fill-opacity="1" stroke="#000000"  style="fill-rule:nonzero;" stroke-linejoin="round" /></g>		<g fill="#000000" fill-opacity="1" stroke="none"><!-- points_control:32-->
<polygon points="317.67238473042,474.67238473042 318.80347235637,475.96926894684 319.9738166909,477.91277935315 320.8527438639,480.24416280014 321.30303391955,482.82000259774 321.27359546816,485.57919655178 320.76740637823,488.47293998473 319.82250922407,491.43024822463 318.53043277248,494.65818946531 316.96252279255,497.44253570514 315.21196834713,500.02835668176 313.27908001396,502.84323413066 311.51033867991,504.82541175364 309.82641742477,506.51265337028 308.27335210493,507.92529702262 306.87534329689,509.08299422219 305.74164942633,510.14953435008 304.36403333266,510.82176672092 303.67729521805,511.39909872608 303.18716582289,511.82610047508 302.98453635897,512.20203521394 303.23566107577,512.69392885509 303.73057527644,513.08667443243 304.48667468804,513.37489942511 305.55249395097,513.60114234151 306.96688549808,513.77369128859 308.75493154844,513.89210093234 310.92791296682,513.96029532161 313.66695421558,513.98971119957 316.43425134384,513.99851798995 319.10907354182,513.99992651373 321.50872694264,513.99998851984 321.5087494554,514.0000110326 319.10909605458,513.99994902649 316.43464905449,513.99891570059 313.66940468325,513.99216166724 310.93632963164,513.96871198644 308.779179154,513.9163485379 307.01827148058,513.82507727109 305.64652203026,513.69517042079 304.64685689697,513.53508163404 304.00431894701,513.360418103 303.74837670692,513.20664448624 303.82697077707,513.04446963204 303.98229815586,512.62123280805 304.33877995512,512.06058346315 304.95890393404,511.4166373223 306.17807126436,510.5859561881 307.43577336804,509.64342429335 308.83001841991,508.4819633376 310.40737341681,507.09360936232 312.12147712101,505.43655019474 313.92392631766,503.48808043435 315.92342262804,500.73981096267 317.68301050589,498.16302341848 319.28633783847,495.41409453129 320.62829987987,492.23603888043 321.5960829228,489.3016165293 322.13094893769,486.43655002132 322.17420794851,483.69117662669 321.71066905307,481.10208798932 320.78747234251,478.72643500475 319.54753338453,476.71332997501 318.32761526958,475.32761526958 " fill="#000000" fill-opacity="1" stroke="#000000"  style="fill-rule:nonzero;" stroke-linejoin="round" /></g>		<g fill="#000000" fill-opacity="1" stroke="none"><!-- points_control:4-->
<polygon points="324.412875,513.412875 324.412875,513.850375 324.412875,514.412875 324.412875,514.912875 325.587125,516.087125 325.587125,515.587125 325.587125,515.024625 325.587125,514.587125 " fill="#000000" fill-opacity="1" stroke="#000000"  style="fill-rule:nonzero;" stroke-linejoin="round" /></g>		<g fill="#000000" fill-opacity="1" stroke="none"><!-- points_control:23-->
<polygon points="401.78973469858,454.78973469858 399.52862911008,453.07030074127 399.04735749935,452.53392084235 399.33281921601,452.27785102107 400.05392906059,451.92632190131 401.2745805392,451.46720038356 403.17271650902,450.83575647493 405.49945128317,450.17024313598 408.58506673222,449.29748465665 411.58465708055,448.32933923099 414.76188654893,447.28753355369 418.0204838894,446.20978447274 422.03419449836,444.88774245601 425.15572235887,443.83992242557 428.07212323256,442.8655533058 430.71937356944,442.00567318966 433.11399963475,441.28235461124 435.02286506364,440.73426987176 436.60857629247,440.34923873542 437.76932518387,440.1261257294 438.64447875275,440.02720913806 439.28496385836,440.00207841652 439.75416464338,439.99991158206 439.99970174922,439.99970174922 440.00029825078,440.00029825078 439.75476114495,440.00050808362 439.29631680793,440.01343136609 438.69404633053,440.07677671584 437.87092941287,440.2277299584 436.75613591334,440.49679835628 435.19333796759,440.90474277571 433.31250994486,441.48086492136 430.92186773341,442.20816735363 428.2900841412,443.08351421445 425.37741437063,444.06161443733 422.25637835707,445.10992631472 418.23843211846,446.42773270181 414.9812374042,447.50688440895 411.80186897361,448.54655112405 408.79903149088,449.51144941531 405.68587300601,450.35666485882 403.36581195074,451.02885191665 401.50215233675,451.69477218111 400.30835180576,452.18074464648 399.69555628608,452.64058809114 399.70919146169,453.19575480469 400.05209597584,453.59376760702 402.21026530142,455.21026530142 " fill="#000000" fill-opacity="1" stroke="#000000"  style="fill-rule:nonzero;" stroke-linejoin="round" /></g>		<g fill="#000000" fill-opacity="1" stroke="none"><!-- points_control:24-->
<polygon points="427.80658288536,425.80658288536 427.50853445769,426.78072664126 426.82004811458,428.16828059555 425.92915441089,430.43364440349 424.85510660278,434.22943091895 423.54615659998,438.611227122 421.96175671741,443.79742410877 420.07969604177,449.60348457941 417.93008775787,455.96201017007 414.7941812213,462.09757625039 412.12990737627,468.14917820637 409.35583353482,474.23780962902 406.51357635077,480.58725770529 403.2658062329,485.86166634036 400.27785831861,490.78727735719 397.33505144487,495.44673910899 394.51699892832,499.74511866698 391.39170460105,503.28438068238 389.03815068006,506.8284024176 386.92591981519,509.32963811197 385.23774994597,511.30331157482 383.86356539766,512.77130901051 382.76104228497,513.84447032544 381.75261820794,514.52259675301 380.83366535908,515.83366535908 381.16633464092,516.16633464092 382.08528748977,514.85526603485 383.00472197847,514.08815001894 384.14221221471,513.04995582756 385.53273312641,511.59829475526 387.23372116641,509.63743946319 389.34839528684,507.13864702438 391.72912740254,503.62180348387 394.82278517508,500.05090491375 397.67380266135,495.78549032546 400.62121347898,491.13063251756 403.61304735932,486.20890746677 406.85953489724,480.93321625177 409.72624187304,474.60821796724 412.49960643934,468.51887726944 415.16595848885,462.46935351795 418.2920057838,456.323928196 420.46426909984,449.98805763749 422.34818623433,444.18385362569 423.93465186661,438.99972238862 425.24434810258,434.61867241875 426.32002858703,430.82451857963 427.1985983661,428.54683084707 427.87350158114,427.1456937647 428.19341711464,426.19341711464 " fill="#000000" fill-opacity="1" stroke="#000000"  style="fill-rule:nonzero;" stroke-linejoin="round" /></g>		<g fill="#000000" fill-opacity="1" stroke="none"><!-- points_control:30-->
<polygon points="417.82337566362,472.82337566362 418.17304069027,472.51599031122 419.03322016307,471.83144897822 420.2961891793,470.95707855054 421.88078085287,469.96668020767 423.67315278406,468.9202232287 425.54315663902,467.88642155938 427.37378956092,466.92844042605 429.06691919665,466.07855296243 430.61419142296,465.32100432421 431.93858174392,464.85780443552 433.00133785517,464.51971426387 433.78703582498,464.36478497717 434.13363747648,464.28531911074 434.34857305652,464.63510431303 434.39646998249,465.71122805976 434.11655216282,466.87949270678 433.6654746856,468.36886857024 433.0440276801,470.13851710807 432.27791474413,472.1329330621 431.41371634017,474.79957587767 430.46015102363,477.10926328505 429.43624661104,479.42278994634 428.34430319001,481.68955740613 427.17864359391,483.87451119206 425.93674650317,485.94895413387 424.63200535391,487.88035331795 423.29928446844,489.63518851568 421.99406138606,491.20252354169 420.76799501503,492.57853141076 419.76718585466,494.76718585466 420.23281414534,495.23281414534 421.2336233057,493.04415970143 422.38579651924,491.59425867487 423.69255033096,490.0284543782 425.0384457529,488.28679371694 426.35960267011,486.37181030081 427.61679223319,484.31265983134 428.79519519551,482.14044941163 429.89693709814,479.88348043345 430.92796144645,477.57707370786 431.88670475325,475.27256429075 432.76449121961,472.61950953759 433.52243030424,470.61691973221 434.14829810614,468.85169199077 434.60616524258,467.36910578654 434.89390416987,466.20866224713 434.86020056673,465.14673182324 434.5618296711,464.71351130535 433.87536362332,464.4531127755 433.10671585916,464.62509226786 432.11302669805,465.03224938965 430.78170100491,465.48851390616 429.30462073321,466.31625449899 427.60193175789,467.15658262302 425.78215822563,468.12542314599 423.92231781284,469.16938825748 422.14046160115,470.22636095595 420.56978013095,471.23066950219 419.32885241575,472.1270812309 418.4997777454,472.84272736636 418.17662433638,473.17662433638 " fill="#000000" fill-opacity="1" stroke="#000000"  style="fill-rule:nonzero;" stroke-linejoin="round" /></g>		<g fill="#000000" fill-opacity="1" stroke="none"><!-- points_control:28-->
<polygon points="419.82798227158,494.82798227158 417.84222215566,495.61976194298 417.15900081534,496.43105815444 416.57404972836,497.06168806286 416.28848783264,497.74584448395 415.43314202453,497.43088642075 415.62945227184,498.1446329356 416.04024696905,498.50200160364 416.55449296105,498.50186052671 417.46686861859,498.38876500086 418.89461393338,498.11929147951 420.77608435386,497.59565840964 422.81431626899,497.55586360325 425.22149186967,497.18829947779 428.20229442594,496.80385869918 431.01734167938,496.43896487046 433.88639430877,496.1003164767 436.72123525642,495.79656179395 439.45336659361,495.53794222246 442.36991903612,495.31430656186 444.65825380511,495.13782881079 446.79555621616,494.98846796803 448.74691007941,494.84371507061 450.61018326862,494.67591930641 452.40348583601,494.47233737693 454.11135973135,494.25400951705 455.67365971367,494.08122514962 456.71840642008,493.73951546762 457.72654916238,494.72654916238 458.27345083762,495.27345083762 457.26530809532,494.28641714286 455.73285572998,494.14042116593 454.20746092068,494.35011070638 452.50363593248,494.57248747341 450.69464090123,494.76037693902 448.81286362323,494.90966861443 446.8511912193,495.04410297116 444.71247785181,495.19205285749 442.43134462908,495.37573215482 439.51285761632,495.59743324517 436.79750471417,495.87283125169 433.97092344295,496.18484561087 431.11022753085,496.53185072193 428.30416191938,496.90572619262 425.32117185044,497.28797945856 422.93637906382,497.67792639809 420.78276007843,497.60233413421 419.170186843,498.39486438914 417.55719259193,498.4790889742 416.65590320624,498.60327077189 416.08250099835,498.54425563295 416.09193265312,498.60711331688 416.21310722851,498.21085162474 416.35431843208,497.81167508338 417.09420413147,497.58184246597 417.71585123366,496.98790857276 418.42977315728,496.2073129446 420.17201772842,495.17201772842 " fill="#000000" fill-opacity="1" stroke="#000000"  style="fill-rule:nonzero;" stroke-linejoin="round" /></g>		<g fill="#000000" fill-opacity="1" stroke="none"><!-- points_control:30-->
<polygon points="540.7168795033,579.7168795033 540.41970850656,579.11295258006 539.52208574806,580.13452467889 538.07207012683,581.89862831359 536.03634942173,584.375899544 533.44200762289,587.42175592208 530.39572058368,591.04851390678 526.78483845464,594.68177345643 522.39836179064,598.96185979973 518.50651077181,602.44660689192 514.60325613887,606.12543161579 510.64015146468,609.25367874084 506.83977974439,612.11625059231 503.04015667483,614.61871633675 499.67672906046,616.79387028149 496.66079756294,619.05146910299 493.39005905697,620.55377138624 491.05380756521,621.7809462932 489.08530813624,622.74610641684 487.47927522426,623.49078342574 486.23564299385,624.08251231276 485.24377599504,624.51906905608 484.63406931755,624.94204308987 484.38556326037,625.54461102868 484.46738369194,626.39970583647 484.84410474925,627.60798556225 485.51154280693,629.28223994194 486.44349645808,631.49764101647 487.55653374691,634.27561800875 488.70413557032,637.62733616573 490.70248287032,642.70248287032 491.29751712968,643.29751712968 489.29916982967,638.22237042508 488.16173751896,634.8808217808 487.03685968856,632.09100424695 486.10089885563,629.87159599064 485.43832062988,628.20220144289 485.07874639307,627.0110685376 485.02293863978,626.18198640809 485.23388593298,625.5418597053 485.68395486417,624.95924792521 486.54154147608,624.38841079499 487.76084357002,623.7723517715 489.35656256639,623.01736084699 491.33380561305,622.06094434104 493.68524323671,620.84895556598 496.93045466717,619.32112620722 500.05005448911,617.16719571013 503.38964160715,614.96820126907 507.19135566277,612.46782651069 511.02258589053,609.63611316669 514.99857789766,606.52075337458 518.94262121086,602.88271733096 522.82552713775,599.38902514685 527.23047224665,595.12740724844 530.84884375653,591.50163707962 533.92957411474,587.90932241393 536.52323595901,584.86278608128 538.56555941736,582.39211760412 540.01605613997,580.6284950708 540.90253816437,579.59578223788 541.2831204967,580.2831204967 " fill="#000000" fill-opacity="1" stroke="#000000"  style="fill-rule:nonzero;" stroke-linejoin="round" /></g>		<g fill="#000000" fill-opacity="1" stroke="none"><!-- points_control:32-->
<polygon points="490.55880821181,642.55880821181 491.42255859013,646.54827969151 492.07926108631,650.68848559761 492.5347926875,654.90656398694 492.79570370573,659.36435172429 492.88511946047,663.64600905282 492.85190652759,667.60654912982 492.74741085972,671.18127962177 492.60717566501,674.16919037059 492.44970317855,676.37004420224 492.2871750386,677.98585001515 492.19587423577,679.08137119732 491.98861705726,679.21978589807 491.89179809591,678.50457094951 491.86388930219,677.06126977015 491.92074134672,674.84261206501 492.08581523157,671.97363451149 492.36886754033,668.18991354078 492.78898399373,664.36913800117 493.36293102122,660.3604789379 494.11536210604,655.85272692564 495.05947380562,651.96990672287 496.2739559072,647.92471521316 497.71592140857,644.35152619189 499.43941579684,641.01825651502 501.48804254578,637.80646284437 503.97247049717,635.01385655437 506.80350249754,632.42331946992 510.06868185788,629.94367674356 513.78329419192,627.52025080898 517.9391157342,625.08110945147 522.5507589948,622.52518718278 522.98849579106,622.96292397904 518.37685253047,625.51884624773 514.2427778517,627.97973446876 510.56661716462,630.4416120503 507.35636172635,632.97617869873 504.58994968838,635.63133574558 502.16994701873,638.48836731732 500.20826110455,641.78710182273 498.52069535666,645.15630013999 497.11329460333,648.76405390929 495.92534337766,652.83577629491 494.99317997871,656.73054479831 494.25385202285,661.25139993952 493.68292219628,665.26307620372 493.26651010556,669.08755610601 492.98632630029,672.8741455802 492.82225990946,675.74413062776 492.76659931598,677.96397978395 492.79462860732,679.40740146091 492.88398601426,680.11515485506 492.95072825348,679.83622521504 493.17940962717,678.87808460371 493.34798306236,677.26832408606 493.50783573135,675.06985043693 493.64940800519,672.08327676724 493.75451863221,668.50916123444 493.7880873668,664.54897695915 493.69850650679,660.26715452536 493.43624243731,655.80801373675 492.97700327071,651.586227782 492.31432537271,647.44004647409 491.44119178819,643.44119178819 " fill="#000000" fill-opacity="1" stroke="#000000"  style="fill-rule:nonzero;" stroke-linejoin="round" /></g>		<g fill="#000000" fill-opacity="1" stroke="none"><!-- points_control:32-->
<polygon points="528.76650464937,619.76650464937 533.74319484676,616.00522409926 538.7441797358,613.24085407525 543.55767975779,610.61185142866 548.06970424736,608.18926529176 552.1914146573,606.00871445345 555.87373560312,604.09564275432 559.2008682374,602.44748915372 561.87276144612,601.08523123986 563.96359549196,600.01206483385 565.67177891031,599.21081560229 567.14136115085,598.62647797234 568.22746862516,598.3015934915 569.11143580174,598.17192057045 569.66337040812,598.08145940083 570.14295298021,598.30065904386 570.6643309621,599.15014094392 571.14490430558,600.34468136894 571.60672922889,602.06607444787 572.05555916532,604.39210861773 572.49810469754,607.57495172632 572.93368159693,611.19315483211 573.36098659082,615.69788072118 573.77629182442,620.72118641012 574.17658335357,626.11304161344 574.55713237233,631.81198760687 574.90665502007,637.89859044153 575.20436914884,644.28866013963 575.42560076433,651.4386938063 575.55619861705,657.89929105328 575.60822725556,664.35118516988 575.61795805359,670.66999168273 576.38145714827,671.43349077741 576.37172635023,665.11468426455 576.31967378192,658.66276621815 576.18894466532,652.20203770728 575.96750360151,645.0517945923 575.66932650003,638.66126192149 575.31937516197,632.57423039651 574.93838499304,626.8748432529 574.53769450953,621.48258909523 574.12188766572,616.45878179608 573.69376379131,611.95323702648 573.25610886,608.33295588879 572.81175915419,605.14830860659 572.35623833168,602.81558355067 571.88183301393,601.08161007729 571.37080246677,599.8566124486 570.78986361089,598.94756967453 570.04397689274,598.46206588545 569.18123906279,598.2417238315 568.37866866311,598.45279352945 567.40728964443,598.89240646592 565.96054842617,599.49958511816 564.29928209084,600.34775143272 562.22453207028,601.43700186401 559.5467685037,602.79338942002 556.21166098715,604.43356813835 552.54514633456,606.36244613071 548.42709896083,608.54666000522 543.91921817814,610.97338984901 539.11055514153,613.60722948098 534.11281540479,616.37484465729 529.23349535063,620.23349535063 " fill="#000000" fill-opacity="1" stroke="#000000"  style="fill-rule:nonzero;" stroke-linejoin="round" /></g>		<g fill="#000000" fill-opacity="1" stroke="none"><!-- points_control:32-->
<polygon points="576.48074326783,677.48074326783 575.40759231237,685.06940751838 575.14366651504,690.20614582728 574.73184657147,693.98138323273 574.22523030648,696.95672007232 573.65531241483,699.33793338348 573.03719851654,701.29490303729 572.37302553619,702.90791845057 571.65699128384,704.20954357486 570.87486445306,705.22551660303 569.98608514201,705.92904854154 568.33612488734,705.79279767443 566.55114482406,705.19971453312 564.5309361895,704.03271788271 562.26333572317,702.25101675974 559.76710001205,699.81709644037 557.07998760813,696.70475524315 553.90219261118,692.57880746659 550.89047402592,688.20664287727 547.78260593033,683.1615792296 544.61654223947,677.82859744829 541.43113306201,672.68996162516 537.72686473209,667.41366390878 534.63368534539,662.58977330693 531.66509412832,658.48033463932 528.5773972791,654.75075590201 526.18994278902,651.7498952606 524.1482761334,649.6411227148 522.48634631232,648.14499462671 521.18543005868,647.12280690069 520.20997085223,646.37421244769 519.72441465696,645.88538652555 520.46847721303,646.62944908162 520.9540334083,647.11827500377 521.81634565447,647.75372249648 523.13504273146,648.79369104586 524.85063589037,650.34348247177 526.94326960961,652.50322208119 529.39720082659,655.57055944951 532.47303174381,659.28827225481 535.48325544609,663.43934340763 538.60921967017,668.29601884686 542.28974296251,673.54857152567 545.50744469642,678.71949990524 548.68424607977,684.06321937904 551.78352712771,689.09969597906 554.76628343432,693.44289828973 557.91123255319,697.5360001882 560.5612431481,700.61123957642 562.99536109898,702.98304213556 565.17675654597,704.67853823918 567.06601020887,705.71457991793 568.62570352802,706.08237631512 569.99049249817,705.9334558977 571.30274587065,705.65339802061 572.37500438496,704.92755667597 573.25155289592,703.7864458103 573.99459837744,702.25230289819 574.65152233814,700.33414330679 575.24381004042,697.97529980626 575.7652137457,695.01475040695 576.18608146337,691.24856077561 576.45493354167,686.11674874768 577.51925673217,678.51925673217 " fill="#000000" fill-opacity="1" stroke="#000000"  style="fill-rule:nonzero;" stroke-linejoin="round" /></g>		<g fill="#000000" fill-opacity="1" stroke="none"><!-- points_control:32-->
<polygon points="520.87557292484,645.87557292484 521.85340054621,645.48928273897 523.34458243003,644.75164423473 525.3908878204,643.75496205457 527.86630291572,642.57665243551 530.57105723728,641.32136497927 533.31594304994,640.10917333974 535.95899412971,639.05388891678 538.45181729508,638.23542581248 540.60041659906,637.73465756822 542.39191301033,637.52089632057 543.81221376982,637.5294664656 544.69095961743,637.93273866625 545.29414963287,638.82192398905 545.57996895075,640.16862681163 545.49076520173,641.89631639651 545.0542799783,644.46942261411 543.90692713791,646.70812100063 542.60530086367,649.05440810662 540.97800557196,651.40043897647 539.07299628898,653.66116039343 536.96820319,655.78385295854 534.11942564705,657.87546890942 531.82406705264,659.45389550721 529.62247574518,660.80768802665 527.58922411055,661.95434735506 525.77948685287,662.92925478898 524.2265499026,663.75728663439 522.94630116348,664.45117752382 521.94362665638,665.01034057515 521.22513122368,665.42357886511 520.84357580502,665.69205652533 521.32192574079,666.1704064611 521.70348115945,665.90192880088 522.38184695712,665.44856087589 523.36119749248,664.86607385282 524.62741926602,664.15815599781 526.17273752028,663.32250545639 527.98326495115,662.34838819566 530.02831245624,661.21352473771 532.25479029929,659.88461875386 534.58454004631,658.34058330868 537.45701510047,656.27266486902 539.65081099098,654.23897509543 541.60706969692,652.02950310143 543.28268468241,649.73179192535 544.62917076117,647.43036462389 545.79241366786,645.20755630368 546.30772900422,642.713280199 546.40993686759,640.99859472848 546.10643009592,639.6342044521 545.37178586376,638.61356491259 544.20447198243,637.92172467821 542.47708499383,637.60606830407 540.70346587891,637.83770684806 538.66516153544,638.44877005284 536.22913560399,639.32403039106 533.63234734508,640.42557763488 530.91076075742,641.6610684994 528.21830473511,642.9286542549 525.74933204651,644.11340628068 523.7101354278,645.1171972325 522.22325544482,645.85913763758 521.12442707516,646.12442707516 " fill="#000000" fill-opacity="1" stroke="#000000"  style="fill-rule:nonzero;" stroke-linejoin="round" /></g>		<g fill="#000000" fill-opacity="1" stroke="none"><!-- points_control:21-->
<polygon points="520.84990986484,665.84990986484 523.86132181544,664.83023268555 526.3896146656,665.86060252309 528.61463521489,665.66972903196 530.85310285395,665.45604908052 533.12620079636,665.27129540355 535.3959867632,665.13797560544 537.98413431946,665.03341565471 539.90344484351,664.94281963882 541.61412950194,664.8330827625 543.12756272382,664.69679646542 544.74214858154,664.49107494622 545.82866921024,664.25534001861 546.7266309277,663.96245466396 547.37127788702,663.56607589541 547.72993604336,663.0500573446 547.92422147661,662.50567972764 547.935709901,661.83877167812 547.79164373317,660.95954744034 547.62089310116,659.87556991128 547.52229412089,657.52229412089 548.47770587911,658.47770587911 548.57630485938,660.8309816695 548.7368196391,661.90472334628 548.87947646963,662.78253824675 548.88044226838,663.46190051941 548.5883720903,663.90849339154 547.93036922678,664.12516723517 547.06636962497,664.30219336123 546.06276894231,664.48943975068 544.91467606986,664.66360243453 543.224129074,664.79336281561 541.69436236523,664.91331562579 539.95675973155,664.99613452686 538.02634095168,665.07562228692 535.43373278581,665.17572162805 533.1875277761,665.33262238329 530.93528524007,665.53823146663 528.70811791024,665.76321172732 526.46783470362,665.93882256112 524.19761127125,665.16652214136 521.15009013516,666.15009013516 " fill="#000000" fill-opacity="1" stroke="#000000"  style="fill-rule:nonzero;" stroke-linejoin="round" /></g>		<g fill="#000000" fill-opacity="1" stroke="none"><!-- points_control:26-->
<polygon points="650.79675258673,754.79675258673 649.91361277963,754.20865096176 650.50738877918,754.01371541671 651.54422733699,753.75107540621 653.09864779534,753.33901805096 655.13657309544,752.73204429429 657.60892015391,751.95523481053 660.88080635819,751.00998916285 664.07504450479,749.99826531319 667.67232973526,748.94120542238 671.08027947279,747.90231473258 674.52701737874,746.89673997506 677.95982882974,745.95067446805 681.88181982136,745.02525708771 684.94420679626,744.17269245549 687.78692522759,743.40857551771 690.37059726433,742.73299424776 692.66217112664,742.17232137632 694.85638510237,741.7034192081 696.34153869907,741.36948272218 697.52582082358,741.14402555032 698.47114941464,740.99376484093 699.2592236344,740.85881210755 699.94138870714,740.66967607421 700.54689972417,740.38538966206 701.26232556499,740.18516748135 702.94980353963,739.94980353963 703.05019646037,740.05019646037 701.36271848573,740.2855604021 700.89797693022,740.7364668681 700.17516585148,740.90345321855 699.3973338711,740.99692234425 698.57775356684,741.10036899312 697.6455797902,741.26378451693 696.48610068765,741.51404471076 695.02158108545,741.86861519118 692.81097365867,742.32112390835 690.54861903575,742.91101601919 687.97189195443,743.59354224455 685.13349005219,744.36197571142 682.07761754894,745.22105481529 678.12332477732,746.11417041563 674.72419209693,747.09391469325 671.28469363176,748.10672889155 667.88528760238,749.1541632895 664.27888491256,750.20210572097 661.10257854849,751.23176135316 657.80771767523,752.15403233185 655.3582649529,752.95373615175 653.30246224127,753.5428324969 651.72407179292,753.93091986214 650.68491902834,754.19124566587 650.27214430371,754.56718248583 651.20324741327,755.20324741327 " fill="#000000" fill-opacity="1" stroke="#000000"  style="fill-rule:nonzero;" stroke-linejoin="round" /></g>		<g fill="#000000" fill-opacity="1" stroke="none"><!-- points_control:30-->
<polygon points="694.83942216558,701.83942216558 693.44275990668,702.79822442033 692.71197904448,704.2946565507 691.73370719108,706.45931509547 690.54411120513,709.32729285584 689.12873310149,712.96355503347 687.45667504474,717.58361304985 685.43573114768,722.20791926477 682.96274389992,727.19109738632 680.12907911295,732.46895512082 676.89444655883,738.42970605755 672.71388292763,744.03653307941 668.6498897719,749.87627172825 663.89710282319,755.85247201799 659.14728419022,761.42485780957 654.21842737585,767.4206066513 648.37554550359,772.4781033955 643.28996197415,777.14859263273 638.37476166726,781.56331060295 633.5338391162,785.22562594693 629.31405631184,788.97724223324 625.37625736021,791.60499779743 622.30441600321,793.7442412285 619.56605120557,795.41739914467 617.72847048756,796.63049217701 616.44193763511,797.45870832629 615.74853234365,797.99799833429 615.09263736865,797.7356545448 615.10117389723,797.27547494026 615.62877692242,796.38033806115 617.8522420008,794.8522420008 618.1477579992,795.1477579992 615.92429292081,796.67585405954 615.57819187148,797.75249291451 615.61417638774,798.25719356389 615.75451609385,798.0039820845 616.68275785126,797.69952854243 618.00400222542,796.90602391487 619.85206449446,795.70341243356 622.57766550762,794.01749073292 625.67258832583,791.90132876305 629.60406783384,789.26725375525 633.87786701494,785.56965384567 638.69088713066,781.87943606635 643.63730629405,777.49593695262 648.72825123494,772.83080912685 654.56028357804,767.76246285349 659.54853834382,761.82611196317 664.2943088021,756.2496779969 669.05792172212,750.28430367846 673.14156254001,744.46421269179 677.313008535,738.84826803371 680.58668385888,732.92655986675 683.42237312998,727.65072661638 685.90288383771,722.6750719548 687.93447246783,718.06141047294 689.61905074394,713.45387267592 691.03045170201,709.81363335272 692.21582134214,706.94142924653 693.18780554742,704.77048305364 693.912178813,703.26764332664 695.16057783442,702.16057783442 " fill="#000000" fill-opacity="1" stroke="#000000"  style="fill-rule:nonzero;" stroke-linejoin="round" /></g>		<g fill="#000000" fill-opacity="1" stroke="none"><!-- points_control:32-->
<polygon points="617.73639018326,794.73639018326 620.0026895897,791.31837451819 622.58808645862,789.28681304332 625.26804463914,787.60340675564 627.89858532145,786.33259740133 630.41464601802,785.53440921222 632.77949245356,785.1977923812 634.93736785386,785.23446813646 637.02795187275,785.76009916386 639.06220266103,786.74601545296 641.02125467753,788.17582345064 643.02102854173,790.35027545982 644.74031881119,792.66172182817 646.32016148045,795.26785090317 647.74353952983,798.08187254963 649.00091430754,801.00692199089 650.26991508508,804.53480799383 651.13843637965,807.4207495051 651.89333111243,810.1492767788 652.54971381483,812.65896596387 653.1215719173,814.90851932218 653.62108636136,816.8744367037 654.06282339884,818.62035520328 654.45309255697,819.96009582805 654.80365680995,821.01379723816 655.1410701533,821.75851135939 655.49198302823,822.18685101528 655.54781646182,821.92250882927 655.7125241125,821.28379969015 655.88601859907,820.07161616511 656.12188050625,818.25498039002 656.45033185662,815.84407212669 657.06787734547,816.46161761554 656.73942599509,818.87252587886 656.50409403012,820.68969159617 656.32943948712,821.90071506477 656.14897425679,822.52366662424 655.79052413486,822.48539212191 655.63596673021,822.2534079363 655.37780085863,821.58794128684 655.04549899377,820.55250226485 654.66146712138,819.21899892582 654.22547361594,817.47882395828 653.72561853117,815.51256593604 653.15375188857,813.26300403762 652.49627606536,810.75222173173 651.73907336263,808.02138648808 650.86664630493,805.13153921368 649.58720042972,801.59320811308 648.3158456544,798.6541786742 646.87598999121,795.82367941392 645.27287356083,793.19427657781 643.52067547484,790.84992239292 641.47982779873,788.63439657183 639.43159407258,787.1154068645 637.30493583326,786.03708312437 635.10053675214,785.39763703474 632.80852200668,785.22682193432 630.51266412405,785.63242731825 628.1020807485,786.53609282838 625.54912514878,787.88448726528 622.92614398484,789.62487056953 620.39324363338,791.70892856188 618.26360981674,795.26360981674 " fill="#000000" fill-opacity="1" stroke="#000000"  style="fill-rule:nonzero;" stroke-linejoin="round" /></g>		<g fill="#000000" fill-opacity="1" stroke="none"><!-- points_control:32-->
<polygon points="656.57142043147,812.57142043147 657.28638807634,808.06917102169 658.01845903441,804.70030440587 659.01181277322,801.36487279654 660.25463538263,798.14995831733 661.6892593377,795.14122829821 663.26222443116,792.39265867283 664.93283545651,789.93078857341 666.67810821866,787.75508086704 668.50250538842,785.82869583272 670.44094794108,784.16311279345 672.86495302643,782.54941889186 675.12785588848,781.14531422126 677.501335279,779.79214573906 679.9661519886,778.47393583471 682.50980900646,777.19723013545 685.23458683095,775.88988004322 687.8406331419,774.37841606008 690.38617193877,773.23630689632 692.86676429687,772.16575642563 695.22899023041,771.18651429369 697.43729987996,770.33815725375 699.69440044952,769.57261900995 701.30095144599,768.98364060064 702.68661875158,768.55193889312 703.87414418181,768.27868924794 704.89466951016,768.15832300075 705.68570013385,768.08469790271 706.27700461089,768.05529086717 706.75555162671,768.17277200911 707.17833703464,768.60360149274 707.51351142797,769.49779102237 708.32605488389,770.31033447828 707.99088049055,769.41614494866 707.37383559685,768.79105597926 706.61165003178,768.38993628806 705.79018093484,768.1891787037 704.94266200709,768.20631549768 704.02623736498,768.4307824311 702.91241915678,768.77773929831 701.57725013157,769.25993928623 700.00298079915,769.88119935959 697.70769876253,770.60855613632 695.55181542835,771.50933949164 693.20150447627,772.50049660503 690.73220203907,773.58233699662 688.19797376214,774.73575668032 685.68593820208,776.34123141435 682.8693731696,777.5567942986 680.36206238303,778.86984622914 677.91359758465,780.2044080447 675.56169707035,781.57915540314 673.32803551981,783.01250138524 670.92550248071,784.64766733308 669.0857669667,786.411957411 667.316906524,788.39387917238 665.61569967964,790.61365279654 663.98472870871,793.11516295038 662.44550673606,795.89747569657 661.04006229304,798.93538522775 659.82266983664,802.17572985996 658.85106475674,805.53291012819 658.13484804646,808.9176309918 657.42857956853,813.42857956853 " fill="#000000" fill-opacity="1" stroke="#000000"  style="fill-rule:nonzero;" stroke-linejoin="round" /></g>		<g fill="#000000" fill-opacity="1" stroke="none"><!-- points_control:32-->
<polygon points="707.5431591565,771.5431591565 706.84323182693,774.3545803824 706.23503968144,777.20485315259 705.51503874888,780.128251108 704.67460154637,783.11134740398 703.72703057174,786.09741085581 702.6723726418,789.02577845319 701.50009623783,791.85466588819 700.20719004617,794.63282088516 698.77998866351,797.19567111908 697.20683413021,799.62416765257 695.42580202003,802.37207576448 693.56305625301,804.39969008336 691.59873230111,806.23767772377 689.57181368254,807.87530698458 687.49260148731,809.27093467814 685.57463486435,810.86162824499 683.03094878398,811.77405451176 681.26998791249,812.55362837279 679.68644216734,813.182122518 678.32321878587,813.67960903244 677.21977630764,814.05131279012 676.40875237687,814.25637609144 676.24237952742,814.56733922093 676.66042660351,814.74769852361 677.54914685189,814.69932304712 679.17986064089,814.56222497106 681.53417812241,814.32883608483 684.54712302561,814.01105555942 688.09668250862,813.64478699725 692.06479065852,813.29701410477 696.36727472216,813.04042763266 696.42330832523,813.09646123573 692.12082426159,813.35304770784 688.18269610246,813.7308005911 684.64552021673,814.10945275054 681.63297338359,814.42763134601 679.27107450528,814.65343883546 677.6224981721,814.77267436733 676.68530502464,814.77257694475 676.47008696262,814.79504665613 676.89754241877,814.74516613334 677.55621279424,814.38774927672 678.63547861289,813.99186885946 680.00619621061,813.50187656127 681.61035436291,812.89399482322 683.40272785138,812.14583357915 685.90181499777,811.18880837841 688.0462686626,809.82460185342 690.10156475002,808.40505805206 692.1800381315,806.81898355416 694.19665423083,805.03328806119 696.11053183524,803.05680557969 697.98625173849,800.40358526085 699.56881723596,797.98449969153 701.02628728238,795.45191812136 702.35071949516,792.70528914552 703.54055998597,789.89396579735 704.61152222905,786.98190251312 705.5710760698,784.00782192742 706.42055831704,781.03377067616 707.14861287514,778.11842634628 707.76349033076,775.27483888623 708.4568408435,772.4568408435 " fill="#000000" fill-opacity="1" stroke="#000000"  style="fill-rule:nonzero;" stroke-linejoin="round" /></g>		<g fill="#000000" fill-opacity="1" stroke="none"><!-- points_control:20-->
<polygon points="701.87518333403,812.87518333403 706.79180996684,811.95773956613 712.70955947196,812.40130245686 718.2738372296,812.58411317576 723.37201447612,812.84146248852 727.60163738681,813.1680638545 730.46949116373,813.04808921618 732.8883684217,813.67307786375 734.86693271619,813.95064308262 736.57939211096,814.23798842725 738.42766001725,814.44635584855 739.55921929994,814.65809918152 740.55048945281,814.83517078653 741.41556977403,814.98488800396 742.14463860402,815.12169015527 742.68951611711,815.24107917502 742.90146126101,815.24165495341 743.09898896645,815.48730189084 742.86406583301,815.6223209743 741.50042224229,817.50042224229 742.49957775771,818.49957775771 743.86322134843,816.62147648972 743.99039790917,816.37871083356 743.88506095731,816.22525464971 743.2450597567,815.79662281462 742.52735000694,815.50440155819 741.70161888086,815.2709371108 740.78770798143,815.07238931514 739.78289950989,814.88177939147 738.65375325179,814.67244908309 736.73716913488,814.39576545117 735.06075678365,814.14446715008 733.06449386781,813.84920330986 730.75841463233,813.33701268479 727.60997684241,813.1764033101 723.45677171553,812.92621972793 718.3383953616,812.64867130776 712.75242390474,812.44416688965 706.87976777186,812.04569737114 702.12481666597,813.12481666597 " fill="#000000" fill-opacity="1" stroke="#000000"  style="fill-rule:nonzero;" stroke-linejoin="round" /></g>		<g fill="#000000" fill-opacity="1" stroke="none"><!-- points_control:30-->
<polygon points="234.88749401695,905.88749401695 234.9565339685,906.19858909028 235.16326453147,906.7905959525 235.34453420572,907.46408789894 235.34625041547,908.27328274923 235.06965633074,909.34299669186 234.4656512101,910.79182998148 233.50364114371,912.68327610893 232.10318651557,915.42865240507 230.32519606849,918.21258361634 228.17351103428,921.56590559942 225.1811262934,924.71675692717 222.37974711221,927.85946885301 219.39716795777,930.89411216141 216.30152162152,933.7430763722 213.16526551553,936.9509170466 209.52942450749,939.349280672 206.40921288207,941.49485531342 203.37352074405,943.36992502737 200.46628865063,944.96983913778 197.74495284921,946.35198391945 194.88551725883,947.39176033454 192.74903288871,948.21230374219 190.88180895252,948.83208238639 189.36780217032,949.29181902609 188.13387448658,949.6358396715 187.17039659845,949.91019223813 186.46429795653,950.17591972771 186.04952898994,950.60193124689 185.90899546647,951.42770979772 186.89319541591,953.89319541591 187.10680458409,954.10680458409 186.12260463465,951.6413189659 186.27591838248,950.82832063942 186.63867524847,950.35029701964 187.26609037905,950.00588601873 188.20081461387,949.70277979878 189.4300690369,949.35408589266 190.94827281839,948.89854625226 192.82109613226,948.28436698574 194.96738520034,947.47362827605 197.82369485213,946.43072592237 200.56934287202,945.07289335917 203.48410151415,943.48050579746 206.52970599899,941.61534843034 209.65941331209,939.47926947661 213.29201074682,937.07766227789 216.46504597774,933.90660072842 219.55313434996,931.05007855359 222.54357204812,928.02329378892 225.35262015698,924.88825079076 228.34040382238,921.73279838753 230.51820760099,918.40559514885 232.2970057211,915.6224716106 233.70827638993,912.88791135515 234.67064660026,910.99682537164 235.28168654913,909.55502691025 235.56859485289,908.49562718665 235.57453341548,907.6940871087 235.38511413863,907.01244555966 235.17349393777,906.41554905955 235.11250598305,906.11250598305 " fill="#000000" fill-opacity="1" stroke="#000000"  style="fill-rule:nonzero;" stroke-linejoin="round" /></g>		<g fill="#000000" fill-opacity="1" stroke="none"><!-- points_control:32-->
<polygon points="186.63082104684,953.63082104684 187.56361093286,957.10142091082 188.49613539065,961.45126131489 189.40364851639,966.32358230886 190.22776880295,971.51933500774 190.89121074448,976.89182829697 191.3342737457,983.1322149975 191.5349808416,988.7167766814 191.51190537046,993.99146667758 191.30811021753,999.06330505649 190.97472414941,1003.8496587773 190.5619291132,1008.7536357127 190.11073760596,1012.6910434189 189.65811267115,1016.4084302031 189.22989506609,1019.1820079484 188.846974055,1021.3339411858 188.55576828101,1023.0105770591 188.48152764695,1023.6959767591 188.10396152021,1023.4024194177 188.02938658951,1022.5373966634 188.05477524475,1020.7347787443 188.18272340556,1018.2416494636 188.4204938919,1014.7561383569 188.77960684181,1010.7754160665 189.28719729666,1006.2482636469 189.98716687374,1001.249695392 190.93732521009,995.84739927209 192.20736669049,989.64628158723 193.84542391314,984.10852149343 195.8890157993,978.51893771693 198.35561342184,972.9095937731 201.24980596716,967.28499358326 201.92981302425,967.96500064035 199.03562047892,973.58960083018 196.58975663856,979.2196785562 194.5641832586,984.82728083889 192.94105417604,990.37996907278 191.68674757223,996.59682163423 190.74040939166,1002.0029379099 190.04460693913,1007.0056732894 189.5396216652,1011.5354308899 189.18216629069,1015.5178107556 188.94571061738,1019.0046366754 188.81852642663,1021.4985299262 188.79406352705,1023.302073601 188.86597637728,1024.1644342748 188.81903465295,1024.0334837651 189.24304976895,1023.6978585471 189.59741435073,1022.0843814815 189.98273243309,1019.9348453154 190.41383915871,1017.1641566907 190.8698346375,1013.4501404505 191.3216988369,1009.5134054364 191.7367631301,1004.611697758 192.07100673756,999.82620157651 192.27603486346,994.75559617059 192.29972332707,989.48151916687 192.09852917236,983.89647042417 191.65403474238,977.65465229487 190.98672449286,972.27829069765 190.15892147501,967.07885526748 189.24791588308,962.20304180732 188.31131423688,957.84912421483 187.36917895316,954.36917895316 " fill="#000000" fill-opacity="1" stroke="#000000"  style="fill-rule:nonzero;" stroke-linejoin="round" /></g>		<g fill="#000000" fill-opacity="1" stroke="none"><!-- points_control:32-->
<polygon points="205.76065271041,961.76065271041 210.5586555819,956.45280818473 215.51726167853,952.60084417563 220.578228594,949.10694792388 225.63700809041,945.95383206443 230.60581196868,943.16451605161 235.59355353538,940.75077170162 240.57613864953,938.69249987726 244.75299891298,936.99523897276 248.39594782806,935.60091860038 251.62008531875,934.5596810174 254.71066617166,933.74962642562 257.0720487217,933.17494012522 259.09210028288,932.79876895561 260.73451007356,932.61695774142 262.01027507381,932.5245113375 263.1558339301,932.69108705814 263.91576285489,933.05253222167 264.56709393796,933.74498669969 265.13653963871,934.81898567011 265.64032810911,936.37828251112 266.09132458136,938.40892321231 266.50805938088,941.06897056989 266.90719966374,944.27731750546 267.30635038862,948.35258339957 267.71751801237,952.61791022529 268.14788941676,957.6625577049 268.59667942412,963.21489741842 269.05783042733,968.87270963161 269.52426901238,974.56258469573 269.98863855572,980.32605739956 270.42586837444,986.04231761891 271.06450292212,986.68095216659 270.6272731034,980.96469194725 270.16269927767,975.20101496103 269.6961887621,969.51106796637 269.23506252701,963.85328052131 268.7863074643,958.30097575243 268.35569864561,953.25609085853 267.94389091254,948.99012392349 267.54464875556,944.91476659728 267.14363978522,941.70455097423 266.72406260643,939.04166123738 266.26539811784,937.00335251985 265.74539195931,935.4278379907 265.13069616784,934.30858892957 264.38139354578,933.51816291255 263.45466410336,932.9899172314 262.13865342923,932.65288969292 260.75240702794,932.63485469579 259.17707430964,932.88374298237 257.19638596044,933.29927736396 254.86710821904,933.906068473 251.78327719006,934.72287288871 248.59709601935,935.80206679167 244.98501001379,937.22725007357 240.81811280288,938.93447403061 235.83829445021,940.99551261645 230.88737905158,943.4460831345 225.95282429145,946.26964826547 220.91856634538,949.44728567526 215.88263884765,952.96622134474 210.95323277686,956.84738537969 206.23934728959,962.23934728959 " fill="#000000" fill-opacity="1" stroke="#000000"  style="fill-rule:nonzero;" stroke-linejoin="round" /></g>		<g fill="#000000" fill-opacity="1" stroke="none"><!-- points_control:32-->
<polygon points="271.51987636966,992.51987636966 271.5059643633,998.3735795108 271.3932851042,1004.9261149137 271.13060823685,1011.3241402291 270.72093226166,1016.282041676 270.18054890802,1020.1608779699 269.52417177524,1022.9645917337 268.7672870925,1025.1195922187 267.93704363961,1026.8180940488 266.97072775287,1028.0366014083 265.88661804696,1028.9263851956 264.41993439502,1029.3640110151 262.54030425051,1029.2079834914 260.40983457825,1028.6208231536 258.04098740168,1027.5791823115 255.49006848082,1026.0400129324 252.82285434259,1023.9746656434 249.86938507567,1021.0023784507 247.22940693313,1017.9426012729 244.63880063629,1014.4185142344 242.19251941161,1009.921724053 239.90570541149,1005.6242941241 237.45586891454,1000.927697632 235.7168060014,996.30525564817 234.23472025785,991.69151416231 233.0348218214,987.0511790823 232.151021706,982.22487537462 231.60949961696,978.40379019324 231.4356875842,975.24069801196 231.63561275297,972.74648272176 232.22068220913,970.95096937941 233.1189674108,969.615162462 233.91580434537,970.41199939657 233.0175191437,971.74780631398 232.56022823632,973.6710982051 232.39338645791,976.19839688567 232.5682945394,979.36258511568 233.10188892586,983.17574259448 233.97945373452,987.99581099542 235.16465693168,992.62145083614 236.63134515852,997.21979480529 238.35492715412,1001.8267558716 240.75792649094,1006.4765152036 243.04030507507,1010.7695097164 245.48238835066,1015.2621019488 248.00406577344,1018.7172601132 250.59680864494,1021.7298020199 253.50402334454,1024.6558346453 256.076028139,1026.6259725906 258.53254350027,1028.0707384101 260.7859776127,1028.9969661881 262.77361697657,1029.4412962175 264.4490557614,1029.3931323815 266.09585716565,1029.1356243142 267.46881491249,1028.5346885679 268.63277755255,1027.5138279617 269.60699999279,1025.959305119 270.42459855272,1023.8650185112 271.11398276705,1021.0943118289 271.67166328818,1017.2327727026 272.08754325067,1012.2810752429 272.35271881687,1005.8855486264 272.46607155181,999.33368669931 272.48012363034,993.48012363034 " fill="#000000" fill-opacity="1" stroke="#000000"  style="fill-rule:nonzero;" stroke-linejoin="round" /></g>		<g fill="#000000" fill-opacity="1" stroke="none"><!-- points_control:28-->
<polygon points="235.99519115543,968.99519115543 237.56289964275,968.96319342926 238.95022354428,969.04951311341 240.28182625796,969.47101626292 241.47358470156,970.3289922795 242.35810829777,971.42783693166 242.8946429658,973.15834840368 242.99817793763,975.03542296798 242.63067934175,977.14731307867 241.48728984255,979.34750485742 240.36914800206,982.29142344761 238.69936305984,984.58576403956 236.78433541612,986.71198221475 234.71688294514,988.56146173276 232.72556875697,990.39026421359 229.94833633761,991.57701950351 228.20838672402,992.51072177605 226.75906663839,993.17187418451 225.65076544811,993.59766425333 224.84962892522,993.7563319336 224.88773725892,994.06833002436 225.26933705766,994.09956517123 226.28842629068,994.07432709951 227.97275304096,994.04048907971 230.40506354652,994.01437379615 232.83640991786,994.00289666955 235.12628034417,994.00021793374 237.13298306679,994.00000181788 239.9999996691,993.9999996691 240.0000003309,994.0000003309 237.13298372858,994.00000247967 235.1264020827,994.00033967228 232.83766090066,994.00414765235 230.40988322484,994.01919347447 227.98328148711,994.05101752586 226.30880069352,994.09470150235 225.29238586625,994.12261397982 224.93424217892,994.11483494436 225.31171745582,994.2184204642 225.93835388793,993.88525269314 227.06674781126,993.47955535738 228.56017181966,992.86250687169 230.35202446416,991.98070763006 233.08105809936,990.74575355598 235.27841325085,989.12299203846 237.36914575021,987.29679254885 239.34632513069,985.23272611041 241.0754106371,982.99768608265 242.30528690447,980.16550191934 243.41759898139,977.93423271832 243.86460290644,975.90184793679 243.77648510221,974.04019054009 243.19958649332,972.26931512721 242.15703592575,971.0124435037 240.80591336645,969.99510337141 239.25548864709,969.35477821622 237.67174683848,969.07204062499 236.00480884457,969.00480884457 " fill="#000000" fill-opacity="1" stroke="#000000"  style="fill-rule:nonzero;" stroke-linejoin="round" /></g>		<g fill="#000000" fill-opacity="1" stroke="none"><!-- points_control:30-->
<polygon points="214.91291157229,1072.9129115723 213.00580811271,1072.8552765883 213.1575959124,1073.5161359006 213.76457061327,1074.1644288585 214.66589441798,1074.5454145357 215.85879592218,1074.5854599048 217.51706088353,1074.4446937633 219.6505625472,1074.1981226594 222.58972422785,1073.859136954 225.29535498473,1073.5006535724 228.12572938286,1073.151795607 230.65004513244,1072.867104477 232.88362256694,1072.6995235682 234.64891129393,1072.6100002005 235.8513951582,1072.633798476 236.67294576897,1072.9380835345 236.59383938288,1073.8569886445 236.0384090072,1075.2269429718 234.79748061655,1077.0601527407 232.72450881039,1079.2995292148 230.10576248896,1082.2953634116 226.90738640428,1085.2591539232 223.26780351441,1088.3571032891 218.85531192784,1091.7245300521 214.76675295791,1094.6029362582 209.92023306753,1097.253178118 205.67545069524,1099.7095062365 201.5238566099,1101.9259109701 197.57427603281,1103.8860729142 193.87290667477,1105.4809104002 190.73704607252,1107.7370460725 191.26295392748,1108.2629539275 194.39881452973,1106.0068182552 197.95083008136,1104.2626269627 201.92158542427,1102.3236397844 206.09684412871,1100.13089967 210.36835227727,1097.7012973278 215.20022111357,1095.0364044138 219.3657824752,1092.2350005994 223.81113928633,1088.900439061 227.48735331674,1085.8391208357 230.71471951131,1082.904320434 233.39589083679,1079.9709112412 235.45961724262,1077.7222893668 236.77249443744,1075.961028402 237.41460825509,1074.6777575167 237.56587717549,1073.8310149411 236.26251249218,1073.04491581 234.76287715759,1072.7239660641 232.90514047745,1072.7210414787 230.73015500406,1072.9472143486 228.23170629181,1073.257772516 225.4063982394,1073.6116968271 222.70963227981,1073.979045006 219.75038125075,1074.2979413629 217.62151532127,1074.5491482011 215.92349868332,1074.6501626659 214.70523898235,1074.5847591 214.04839634587,1074.4482545911 213.823738254,1074.1822782422 213.90439420654,1073.7538626821 215.08708842771,1073.0870884277 " fill="#000000" fill-opacity="1" stroke="#000000"  style="fill-rule:nonzero;" stroke-linejoin="round" /></g>		<g fill="#000000" fill-opacity="1" stroke="none"><!-- points_control:32-->
<polygon points="190.87568054413,1107.8756805441 188.26738325848,1108.3973776898 187.65320964784,1108.8241105222 188.26202536276,1109.3966018125 189.46748064148,1109.3789629821 191.64230164535,1109.085111043 194.72936156831,1108.5116401327 199.04605763753,1107.6391613882 203.63478896029,1106.5210333202 208.53054100194,1105.2136005673 214.10474707574,1103.7603874058 219.76476523618,1102.2455927894 225.21326634415,1100.7651977064 230.67101252814,1099.3910915929 235.78094680675,1098.1928356681 239.99743733442,1097.2625752371 243.9017058332,1096.6340652518 246.6442861056,1096.2607440109 248.25305403118,1096.1522547012 248.85803266389,1096.2942479149 248.78736321097,1097.1431464586 247.75375142477,1098.2325973805 245.38451001209,1099.4625902537 242.55699700261,1100.8491253284 239.07427678644,1102.2867568579 234.8815112871,1103.687453716 230.02491647121,1104.9934683928 224.90255376477,1106.1999684733 220.01591510953,1107.3592378473 215.15774980271,1108.523057286 210.44121020776,1109.7197581381 205.95908022403,1110.8798137199 206.19197740855,1111.1127109044 210.67410739228,1109.9526553226 215.38677863964,1108.752086123 220.23368719512,1107.5770099329 225.11742141845,1106.414836127 230.23818145986,1105.2067333814 235.1201247597,1103.9260671886 239.36254802027,1102.5750280917 242.90306911547,1101.1951974412 245.78425024902,1099.8623304907 248.17710868539,1098.6559546411 249.40157895338,1097.757362201 249.74960631955,1097.1858215706 248.64119590102,1096.540396571 246.67962178568,1096.2960796909 244.04822276156,1096.7805821802 240.14535249813,1097.4104904008 235.98873496101,1098.4006238223 230.88373057258,1099.6038096373 225.44173855103,1100.9936699132 220.0101287608,1102.4909563141 214.34452897586,1104.000169306 208.76446973149,1105.4475292968 203.87532895685,1106.7615733167 199.26343713414,1107.8565408848 194.9089079929,1108.6911865573 191.81007141542,1109.252880813 189.57873091469,1109.4902132553 188.28260309923,1109.417179549 188.26858067503,1109.4394815493 188.83286755482,1108.9628619862 191.12431945587,1108.1243194559 " fill="#000000" fill-opacity="1" stroke="#000000"  style="fill-rule:nonzero;" stroke-linejoin="round" /></g>		<g fill="#000000" fill-opacity="1" stroke="none"><!-- points_control:32-->
<polygon points="201.85042268289,1112.8504226829 198.14642573232,1114.3600884462 196.04465548088,1115.635548217 194.55638183149,1117.0701967419 193.54535232468,1118.8806423993 192.84851588321,1121.1251689296 192.34558113754,1123.7784666188 191.9510183854,1126.7606812802 191.60000294212,1130.5954166442 191.23577247731,1133.8984224557 190.81633383516,1137.1727633571 190.31844924526,1140.8316340223 189.72937017393,1143.9673991309 189.05436395932,1146.9373107662 188.30995122057,1149.7111742766 187.51492939853,1152.2587027892 186.71915056289,1155.0754904422 185.9360022492,1157.1294322598 185.20289164355,1158.8988196669 184.54731719307,1160.3797670035 183.99174575172,1161.5748142871 183.55511398095,1162.4871565656 183.25979075282,1163.1070893707 183.03542182659,1163.3238238898 183.03751507922,1163.2436208972 183.21641418577,1162.7130417469 183.61522322646,1161.6981808138 184.2829492545,1160.1444037608 185.26030301258,1158.0377502451 186.56775692831,1155.4236561723 188.2106866321,1152.4214160011 190.20232230083,1149.1695186534 190.84787078416,1149.8150671367 188.85623511543,1153.0669644844 187.23325722412,1156.0891564682 185.93831060498,1158.7157578375 184.97051365168,1160.831968158 184.31175578765,1162.394713375 183.92252789068,1163.4191554518 183.75886606194,1163.9649718799 183.78593574268,1164.0743378059 183.9013321533,1163.7486307711 184.22814833399,1163.1601909186 184.67282864706,1162.2558971824 185.23301796537,1161.0654677758 185.89437700503,1159.5903050284 186.63464043336,1157.828070444 187.42583822913,1155.7821781085 188.24250042704,1152.9862738177 189.03282765363,1150.4340507096 189.7851606369,1147.6681074438 190.46730800737,1144.7053369644 191.06228385744,1141.5754686345 191.56632494102,1137.922754463 191.98662295914,1134.6492729375 192.35242031536,1131.3478340175 192.70485298193,1127.5145158767 193.0961025519,1124.5289880332 193.59247173692,1121.8691247833 194.26948367568,1119.6047737503 195.2240012077,1117.7378161181 196.59199891302,1116.1828916492 198.56276892136,1114.7764316352 202.14957731711,1113.1495773171 " fill="#000000" fill-opacity="1" stroke="#000000"  style="fill-rule:nonzero;" stroke-linejoin="round" /></g>		<g fill="#000000" fill-opacity="1" stroke="none"><!-- points_control:32-->
<polygon points="193.64831493171,1145.6483149317 195.86204384921,1140.3160919426 198.32723959958,1136.3804704509 200.78678368904,1132.7409692761 203.14585596915,1129.4052212548 205.36022995924,1126.3938653484 207.39542817611,1123.7196301953 209.22308197569,1121.3905863722 210.82437565227,1119.4119751053 212.20142680606,1117.767012757 213.35154001735,1116.4638778678 214.35145566946,1115.3868058502 215.17374380079,1114.6929178581 215.89550231738,1114.2168463151 216.56439711276,1113.9506312074 217.1836522533,1113.8603386179 217.56194228436,1113.7771199098 217.94533184794,1113.9069871598 218.37041515228,1114.3198397739 218.82207791833,1115.0257790684 219.29198340543,1116.0470674833 219.77538181426,1117.4027924366 220.28555637262,1119.3795096762 220.81715934211,1121.5556664496 221.38155776363,1124.3727126972 221.97846695924,1127.3992643966 222.61642698197,1131.0835951129 223.30246134826,1134.9471932185 224.05100596299,1139.1010979915 224.87335299717,1143.4408183617 225.76330706725,1147.8335188229 226.69140316155,1152.1823045587 227.43417634157,1152.9250777387 226.50608024727,1148.5762920029 225.61775110169,1144.1852164662 224.797250138,1139.8473421665 224.04993802388,1135.6946698942 223.36423432241,1131.8314024533 222.72683882539,1128.1476362627 222.12664219704,1125.1177971306 221.56185206043,1122.3003591679 221.02315129077,1120.1171045943 220.51070780667,1118.138118429 220.00624027529,1116.7613243532 219.51025822309,1115.7139593731 219.00644639813,1114.9558710197 218.47537626815,1114.4370315801 217.88900877034,1114.1041863958 217.2522395075,1113.9289258721 216.79361513649,1114.1798492312 216.27222392619,1114.5935679239 215.63378838528,1115.1529624426 214.85919922365,1115.8945494044 213.92391839909,1117.0362562495 212.77011173163,1118.3356976826 211.40934758083,1119.9969470339 209.81428502956,1121.981789426 207.99371073955,1124.3179127588 205.96525863852,1126.9988940277 203.75836266546,1130.0177279511 201.40749592285,1133.3616815099 198.95713549848,1137.0103663498 196.50657247347,1140.9606205668 194.35168506829,1146.3516850683 " fill="#000000" fill-opacity="1" stroke="#000000"  style="fill-rule:nonzero;" stroke-linejoin="round" /></g>		<g fill="#000000" fill-opacity="1" stroke="none"><!-- points_control:32-->
<polygon points="227.52084270013,1157.5208427001 227.76200951299,1161.3048041822 228.07746272572,1165.2170637204 228.2420778479,1169.0001571011 228.21937895661,1172.2334300162 228.02317778326,1174.8315466949 227.71728699367,1176.4328979612 227.44822698824,1177.4970682871 226.49985556801,1177.4490355462 225.37872001586,1176.8784038093 224.0580672346,1175.8693033687 222.33891963205,1174.1659240714 220.6330597727,1172.264389603 218.80749993103,1170.0404538482 216.91656138639,1167.5621022857 215.01822029056,1164.9034502893 213.19530261752,1162.1682045402 210.86706120199,1159.1280007652 209.34402863857,1156.4189100112 208.03249104289,1153.8399531468 206.9624776296,1151.4656011625 206.15161341782,1149.3582510478 205.62354657894,1147.2808356998 205.39219025108,1145.986975055 205.49955449361,1145.1003371077 206.01908339169,1144.6894648016 206.80295678728,1144.6092618565 207.4613208178,1144.4791025371 208.35006844612,1144.6698371788 209.41772705672,1145.1357762495 210.60253924827,1145.7955182854 211.76167293624,1146.4446509836 212.23086413366,1146.913842181 211.07173044569,1146.2647094828 209.88510151777,1145.6031507106 208.74727568374,1145.0670444164 207.71459638783,1144.7323781072 206.81425569964,1144.6205607689 206.47002768225,1145.1404090922 206.35038179296,1145.951164407 206.35089494494,1146.9456797488 206.56946492545,1148.2267540463 207.08285218354,1150.2894898135 207.86015118278,1152.3632747156 208.90876341145,1154.7162255154 210.2006049498,1157.2754863225 211.70465156769,1159.9655911309 213.95873979967,1162.9316417223 215.81649628325,1165.701726282 217.69837396483,1168.3439148641 219.57123589458,1170.8041898117 221.37558627484,1173.0069161052 223.05396502393,1174.8809694633 224.73389462605,1176.5451307601 225.95735854204,1177.4570423354 226.90712948731,1177.8563094655 227.56416834239,1177.6130096413 228.47112878352,1177.1867397511 228.95251422732,1175.760883139 229.17647170117,1173.1905227608 229.20230078364,1169.9603800368 229.03680027085,1166.1764012655 228.71913313975,1162.2619278089 228.47915729987,1158.4791572999 " fill="#000000" fill-opacity="1" stroke="#000000"  style="fill-rule:nonzero;" stroke-linejoin="round" /></g>		<g fill="#000000" fill-opacity="1" stroke="none"><!-- points_control:32-->
<polygon points="213.99497594088,1147.9949759409 215.58097323712,1147.9275007261 217.07392767216,1147.65713565 218.78618336662,1147.0514478082 220.78652329329,1146.0694771669 223.02512552202,1144.7722601085 225.38606057354,1143.2820120338 227.73940777454,1141.7476195106 230.04212784263,1140.2755181988 231.99428673958,1139.0055585509 233.71886798959,1138.0182101426 235.31582997054,1137.305157487 236.53115865915,1136.9479004365 237.48513624808,1136.8069483974 238.12349360908,1136.76584612 238.64150291029,1136.9519963859 239.20997737982,1137.5993879864 239.72010865516,1138.2351596868 240.26385824111,1138.9253383676 240.94417869153,1139.5827077293 241.59693077245,1139.8525459663 242.10491804899,1139.4483927547 242.98093661047,1138.4465487054 243.99490407786,1137.2044978312 245.14128247938,1135.5949140445 246.35606535204,1133.773998134 247.57105283248,1131.9305935616 248.73142729091,1130.2341131492 249.80592266303,1128.7850446209 250.7790381771,1127.5830012254 251.6248687936,1126.5360190479 252.32298427928,1125.5841647364 253.03037152225,1126.2915519794 252.33225603657,1127.2434062909 251.45112500982,1128.2550880582 250.49099743405,1129.4701193919 249.44101674999,1130.9437026082 248.29802315945,1132.6575638886 247.08950778023,1134.5074405622 245.87037103503,1136.3240026002 244.70624442305,1137.9158381764 243.6500924092,1139.1157045041 242.76142004567,1140.1048947514 241.80906782439,1140.0646830183 241.24794443261,1139.8864734704 240.87026392694,1139.5317440534 240.41401043923,1138.9290614709 239.89367362409,1138.2830842307 239.29992466576,1137.6104181413 238.51089171541,1137.1532442263 237.59467874404,1136.9164908933 236.679513186,1137.0962549633 235.63646575607,1137.6257932726 234.09265665386,1138.3919988069 232.45209014642,1139.4633619577 230.52623970517,1140.7596300614 228.20925405244,1142.2174657885 225.86723635855,1143.7631878189 223.49047432569,1145.2376089122 221.219960054,1146.5029139276 219.15828281372,1147.4235472553 217.33446485875,1147.9176728366 215.68852018986,1148.0350476788 214.00502405912,1148.0050240591 " fill="#000000" fill-opacity="1" stroke="#000000"  style="fill-rule:nonzero;" stroke-linejoin="round" /></g>		<g fill="#000000" fill-opacity="1" stroke="none"><!-- points_control:32-->
<polygon points="253.71755367693,1124.7175536769 254.49687287246,1124.2022570629 255.13913565861,1124.1424313611 255.32955844737,1123.9250759608 255.53098201131,1123.9909629948 255.79769949718,1124.4546960847 256.06923574692,1125.3382883867 256.32987686153,1126.71324193 256.58525619654,1128.8883185704 256.84100283802,1131.4225865724 257.10254730537,1134.4540041844 257.369286957,1138.0633307266 257.6350485488,1141.9176019529 257.89320411165,1146.5524626554 258.13920988185,1151.2924966419 258.37458398737,1156.2371350181 258.60720612484,1161.8065148285 258.84797693048,1167.1866876561 259.10641984067,1172.6670097835 259.38583418597,1178.3941961618 259.68116241606,1184.0060390667 259.98092332717,1189.1462711369 260.27316880279,1194.2467387019 260.5498749002,1198.7644674079 260.81031895965,1203.1106790149 261.0573160512,1206.7460933687 261.29495317258,1210.1034989182 261.52462368932,1212.4946477038 261.7502904457,1214.2944008276 261.9701406182,1215.6313527872 262.14362082119,1216.6855119609 262.12626321879,1217.6404234486 262.96962390287,1218.4837841327 262.98698150528,1217.528872645 262.80182393104,1216.4630361 262.58263985257,1215.1267502345 262.36168809467,1213.3317121092 262.13462832591,1210.9431740716 261.89872527077,1207.5875025883 261.65187993802,1203.9522399932 261.39186683367,1199.6064593414 261.11509069986,1195.088660599 260.82304298569,1189.9883907954 260.52323153871,1184.8481081893 260.22816956983,1179.2365315457 259.94891833212,1173.5095082749 259.6905407835,1168.0292515091 259.44986306501,1162.6491717687 259.21734950445,1157.0799005352 258.98175499337,1152.1350417534 258.73556960651,1147.3948281502 258.47724235477,1142.7597957589 258.2107840293,1138.9048277989 257.94375092454,1135.2952078036 257.68137174066,1132.2629554751 257.42447656612,1129.72753894 257.16759261379,1127.5509576823 256.89755580359,1126.1666084433 256.60184589857,1125.258842486 256.25091526312,1124.7108962466 255.76616079379,1124.3616783072 255.16828701298,1124.1715827155 254.86459447826,1124.5699786687 254.28244632307,1125.2824463231 " fill="#000000" fill-opacity="1" stroke="#000000"  style="fill-rule:nonzero;" stroke-linejoin="round" /></g>		<g fill="#000000" fill-opacity="1" stroke="none"><!-- points_control:10-->
<polygon points="261.84860767023,1219.8486076702 260.94665198468,1219.9449633747 260.12353842206,1220.3680465821 258.86550516133,1220.8044985013 257.19344232846,1221.2119408885 255.00842238052,1221.5631098805 251.35219019789,1221.7939821979 247.99733111822,1221.9332896882 243.72460363851,1221.9879252385 239.57366238894,1221.9994885089 235.99992088894,1221.9999208889 236.00007911106,1222.0000791111 239.57382061106,1221.9996467311 243.72777140149,1221.9910930015 248.01223578178,1221.9481943518 251.39984564211,1221.8416376421 255.08532761948,1221.6400151195 257.36863639154,1221.3871349515 259.13412019867,1221.0731135387 260.49337549794,1220.7378836579 261.44056447532,1220.4388758653 262.15139232977,1220.1513923298 " fill="#000000" fill-opacity="1" stroke="#000000"  style="fill-rule:nonzero;" stroke-linejoin="round" /></g>		<g fill="#000000" fill-opacity="1" stroke="none"><!-- points_control:30-->
<polygon points="238.97445281057,1251.9744528106 237.488840371,1251.9066765379 236.61059178529,1252.2519491601 235.35874428406,1252.963540871 233.79015108092,1254.0286007758 231.96480511828,1255.4119326666 229.95483577211,1257.0394767576 227.84976571685,1258.8078686191 225.75225024745,1260.6069111908 223.70635587718,1262.3083326612 221.96059332309,1264.0916174092 220.27013757091,1265.3907942691 219.04386334784,1266.4958688822 218.10409579356,1267.4033659012 217.45326202672,1268.1345967291 217.27426932964,1268.8772337011 217.46625839811,1269.5717207427 218.03976056129,1270.1984054398 218.86807941969,1270.7527226505 219.9076793328,1271.2459148883 221.09345854541,1271.6908314059 222.34494467365,1272.1026928844 223.57831577075,1272.49986157 224.71436151553,1272.8998696268 225.67975051316,1273.3157503947 226.40786192163,1273.76170658 226.87189449377,1274.2984114879 227.09079070985,1275.0510563026 226.98106412733,1276.069220674 226.44544963638,1277.4385347869 225.59564250476,1280.5956425048 226.40435749524,1281.4043574952 227.25416462685,1278.2472497774 227.76436945031,1276.852525997 227.92089060451,1275.8811561973 227.67314849987,1275.099665494 227.03551066705,1274.3893553255 226.13762868496,1273.7736285665 225.06484862661,1273.2503567379 223.86820121175,1272.789747011 222.60708285472,1272.3648310655 221.35531845195,1271.9526913124 220.19686572806,1271.5351012836 219.21730677158,1271.1019500024 218.49455267269,1270.6531975512 218.08812218683,1270.1935845314 218.10247906085,1269.7054434323 218.26928682184,1268.9506215242 218.78164045969,1268.0809105674 219.64884003002,1267.1008455644 220.84006647501,1265.9607231732 222.48157914081,1264.6126032269 224.29369937799,1262.895676162 226.29527802952,1261.1499389729 228.39469912539,1259.3528020277 230.49441263337,1257.5790536188 232.49372617202,1255.9408537204 234.29990417028,1254.5383538652 235.8371440621,1253.441940649 237.04099888185,1252.6823562567 237.83882586108,1252.256662028 239.02554718943,1252.0255471894 " fill="#000000" fill-opacity="1" stroke="#000000"  style="fill-rule:nonzero;" stroke-linejoin="round" /></g>		<g fill="#000000" fill-opacity="1" stroke="none"><!-- points_control:32-->
<polygon points="225.78595875643,1280.7859587564 222.64820155785,1282.5378751429 220.63127408935,1284.0307011087 219.03590006549,1285.1949492444 217.90899110532,1286.0583628033 217.18654992333,1286.6099946381 216.99278197877,1287.0234745719 217.41227996135,1287.4392486769 217.86460705521,1287.3684619019 218.64714605432,1287.2537110556 219.64438250318,1287.1803782082 220.48619335182,1287.0790757634 221.08097731027,1287.075001228 221.45452340473,1287.5013931897 221.50452990133,1288.4828505645 220.95292383044,1289.9107627682 219.89217739818,1292.2719981827 217.56502114324,1294.6170385908 214.98908700432,1297.3008546764 211.89603960477,1300.2201809221 207.77778397545,1303.2053822421 203.69851102627,1306.1883588099 199.41643862055,1309.7454259542 195.03966540128,1312.5682395048 190.68241864219,1315.3112294582 186.1594199219,1317.6852154605 181.52997575061,1319.7999891101 177.98840532541,1321.6796666903 175.01108924209,1323.2532228953 172.72746225607,1324.4686066077 171.20780035457,1325.2770793783 170.51057342713,1325.6952062341 170.95017686105,1326.134809668 171.6474037885,1325.7166828122 173.13764443993,1324.8787887916 175.41408577175,1323.6562194249 178.3882767917,1322.0795381566 181.9305947588,1320.2006081183 186.51875736969,1318.0445529083 191.07621260334,1315.7050234194 195.48959171785,1313.0181658214 199.87855380962,1310.2075411432 204.23820955665,1306.7280573403 208.28537761633,1303.712975883 212.39820679293,1300.7223481103 215.56782448186,1297.879592154 218.17784070889,1295.2298581564 220.49958320628,1292.8794039908 221.71768398295,1290.6755229207 222.29803622579,1289.276356889 222.30909421983,1288.3559640048 221.71584962383,1287.7098735416 220.69886641929,1287.2917488309 219.64751423809,1287.1835099431 218.76473875972,1287.371303761 217.99872161973,1287.5025764665 217.45787054836,1287.4848392639 217.58921725737,1287.6199098505 217.89061413793,1287.3140588527 218.49022042393,1286.6395921219 219.57108260181,1285.7301317807 221.14127676822,1284.5407037876 223.15694975641,1283.0466233414 226.21404124357,1281.2140412436 " fill="#000000" fill-opacity="1" stroke="#000000"  style="fill-rule:nonzero;" stroke-linejoin="round" /></g>		<g fill="#000000" fill-opacity="1" stroke="none"><!-- points_control:32-->
<polygon points="171.72310831478,1325.7231083148 175.29244807104,1323.5582390177 179.60943900535,1321.9103024494 184.38963739527,1320.0526991544 189.48237571723,1318.0202300849 195.02006731036,1315.8155194738 201.08749463697,1313.4526294782 206.96051757328,1311.0257322458 212.57322292655,1308.6398552844 218.02378277315,1306.3955572023 223.33938447731,1304.3488537357 228.31667834977,1302.3780504556 232.34587236099,1301.0338033914 236.00049032988,1299.9410423398 238.76601276971,1299.0961882331 240.88777596198,1298.4651666374 242.59512031224,1297.8782940894 243.31830063278,1297.3370240767 243.55747361765,1296.8832032678 243.63648436763,1296.7793825109 243.11912123148,1296.5264446432 242.14687810514,1296.2136972319 240.55094023433,1295.8108821561 238.75162934692,1295.3480483362 236.68927123451,1294.8058717846 234.4586414606,1294.1858244097 232.17163825061,1293.5093232444 229.95003388595,1292.8201059699 227.90778081619,1292.1752750692 226.12716241184,1291.6287636582 224.64990812299,1291.2247561193 223.46826072,1290.9563588459 223.69307953205,1291.181177658 224.87472693504,1291.4495749314 226.40694154021,1291.9085427866 228.2093215743,1292.4768158274 230.25634531366,1293.1264173976 232.47149814181,1293.8091831356 234.74463044642,1294.4718133955 236.95865224382,1295.0752527939 239.00746335204,1295.6038823413 240.80309457807,1296.0630364999 242.39423212563,1296.4610512524 243.45563380398,1296.8629572157 244.12982725371,1297.272725397 244.48871677595,1297.8144464261 244.0131449951,1298.0318684391 243.04657929059,1298.3297530677 241.15774639865,1298.735137074 239.06266651618,1299.3928419796 236.29701069561,1300.2375627055 232.63556246975,1301.3234935002 228.64319351648,1302.7045656223 223.71915804263,1304.728627301 218.38668179469,1306.7584562238 212.96241035683,1309.0290427147 207.3584734273,1311.4236880998 201.47402814919,1313.8391629904 195.38651386736,1316.1819660308 189.85884518876,1318.3966995564 184.7658296141,1320.4288913733 179.97592982356,1322.2767932676 175.65374106917,1323.9195320158 172.27689168522,1326.2768916852 " fill="#000000" fill-opacity="1" stroke="#000000"  style="fill-rule:nonzero;" stroke-linejoin="round" /></g>		<g fill="#000000" fill-opacity="1" stroke="none"><!-- points_control:32-->
<polygon points="222.82924357403,1290.829243574 220.88658877612,1289.8615809479 220.04312294682,1290.3467847841 219.20409781738,1291.5808743718 218.1722620307,1293.5452665972 216.87565919555,1296.1787793719 215.27355788576,1299.3983659409 213.34001237884,1303.5669424485 211.06194952711,1308.0705247121 207.98669850644,1312.4970416176 204.8172180367,1317.1543238571 201.14521246377,1322.3904170711 197.32380620344,1327.4459104383 192.91187032785,1332.9391805598 188.64997869127,1337.9339858722 184.36024763383,1342.7945058772 180.2228392004,1348.0390801639 175.67487013858,1352.2959696862 172.04079411402,1356.1348717023 168.85538984867,1359.4269465395 166.15426953089,1362.2158758493 164.23988974151,1364.0022486379 163.21873586503,1365.2140319379 162.91564344801,1364.982892085 163.73741208611,1363.8562360866 165.3697927533,1361.2913551688 167.84869571093,1358.2802794919 171.16647432845,1354.8417335091 174.96115760113,1351.1635651305 179.1406777143,1347.5176424211 183.49367708315,1344.1893184715 187.76916602773,1341.4560243166 188.19455033575,1341.8814086246 183.91906139117,1344.6147027796 179.62509997121,1348.002064678 175.48315021454,1351.685557744 171.71840508856,1355.3936642692 168.41847016098,1358.850053942 165.98345813302,1361.9050205485 164.40919260371,1364.5280166042 163.54319838149,1365.6104470185 163.64772192485,1365.6430179977 164.81045636688,1364.5728152633 166.69733993809,1362.7589462565 169.42047892425,1359.9920356151 172.60815818355,1356.7022357718 176.24798109211,1352.8690806398 180.76457006531,1348.5808110288 184.97643292431,1343.4106911677 189.2433938423,1338.5274010232 193.51225896738,1333.5395691994 197.93882651391,1328.0609307487 201.77447570923,1323.0196803166 205.46299824278,1317.8001040632 208.63922871976,1313.1495718309 211.71075510882,1308.7193302938 214.04217833171,1304.2691084014 215.98933517309,1300.1141432282 217.58324371632,1296.8863638927 218.88072180823,1294.2537263747 219.90419469516,1292.2809712495 220.70416245551,1291.0078242927 221.36638579758,1290.3413779693 223.17075642597,1291.170756426 " fill="#000000" fill-opacity="1" stroke="#000000"  style="fill-rule:nonzero;" stroke-linejoin="round" /></g>		<g fill="#000000" fill-opacity="1" stroke="none"><!-- points_control:32-->
<polygon points="192.88462594145,1339.8846259414 195.85616763325,1339.0163296892 198.3341765741,1339.54390465 200.17476246056,1340.779213893 201.42373682646,1342.6238240474 202.15469442302,1344.868580978 202.45463275941,1347.3259938764 202.4173081056,1349.8527417605 202.13725201402,1352.4909380459 201.69141946743,1354.835004513 201.15235174263,1357.0159090601 200.58741852488,1359.2407096681 200.03018648427,1360.9501502853 199.51710429979,1362.3930125702 199.07408160147,1363.5410655264 198.71439792441,1364.3572320927 198.67112892239,1365.079778882 198.33855754618,1364.80311207 198.40303343566,1364.4008921205 198.64279100849,1363.5494091867 199.07648934741,1362.2346244935 199.70998991003,1360.4508053222 200.62474450765,1357.7682983723 201.74909592565,1355.0974222943 203.1368155222,1352.0557821728 204.83078678453,1348.1837864833 206.84467118764,1344.2670820006 209.21089209417,1339.9180647712 211.91792626728,1335.4607383869 214.93712236958,1330.8467349489 218.20120007443,1326.2224105095 221.55916651716,1321.7539034406 222.20171164821,1322.3964485717 218.84374520548,1326.8649556406 215.5946223493,1331.5042349287 212.59136246554,1336.1341745852 209.89865878524,1340.6058314623 207.55169687789,1344.9741076909 205.54604489587,1348.8990445946 203.87428795411,1352.7932546047 202.47989320462,1355.8282195732 201.36628571872,1358.5098395834 200.47189711567,1361.2127125279 199.83344358012,1362.9915787262 199.40690279328,1364.3135209715 199.17837268377,1365.1762313686 199.13562235049,1365.6001768743 199.01610214517,1365.4247521048 199.44757684651,1365.0904110148 199.80912812096,1364.2761120459 200.26498591119,1363.1408941816 200.78652482815,1361.7064886292 201.35096084255,1360.0042519858 201.93060104978,1357.7941583673 202.47158732693,1355.6151723725 202.9265102877,1353.2801963196 203.21639261322,1350.6518262682 203.25828385016,1348.1296449671 202.95242181281,1345.6663083678 202.18682061913,1343.3869078401 200.83766409923,1341.4421155316 198.7900454358,1339.9997735117 196.05261211626,1339.2127741722 193.11537405855,1340.1153740586 " fill="#000000" fill-opacity="1" stroke="#000000"  style="fill-rule:nonzero;" stroke-linejoin="round" /></g>		<g fill="#000000" fill-opacity="1" stroke="none"><!-- points_control:32-->
<polygon points="225.67053859761,1317.6705385976 229.07229000045,1313.3888259761 231.82998342461,1310.87288413 234.14216706622,1309.0078001853 236.07060803715,1307.6316108185 237.67378953628,1306.6230703457 239.03252750324,1305.903628731 240.23203310718,1305.4297473564 241.34148836366,1305.1873958136 242.29066819748,1305.070993773 243.06034319456,1305.059806524 243.82782299238,1305.3981296115 244.57618647634,1306.0363926566 245.31559426634,1307.0231092042 246.04270100965,1308.3640358151 246.75420702167,1310.0536792698 247.46694675123,1312.3548368005 248.1716361004,1314.7610226864 248.87439688207,1317.4703593627 249.57599491266,1320.4558916591 250.27784090041,1323.7771575073 250.97743874734,1327.2954638247 251.67682584037,1331.3680440569 252.36898715274,1335.3391945219 253.05227441042,1340.009617729 253.7137558543,1344.4558548056 254.34433276763,1349.4503517717 254.93998212078,1354.9749741956 255.51099855575,1360.1883737146 256.08681327725,1365.4617588554 256.69136011944,1370.6253932579 257.27684226348,1375.4307637825 258.10447190671,1376.2583934257 257.51898976268,1371.4530229011 256.91491099368,1366.2898565718 256.33982767722,1361.017202836 255.76877534868,1355.8037674235 255.17327972414,1350.2792987282 254.54092319415,1345.2830221455 253.87691890236,1340.8342622209 253.19395863636,1336.1641660055 252.49813992972,1332.1893581463 251.79916567489,1328.1171907523 251.09550883733,1324.5948254442 250.39169160904,1321.2715883555 249.68594056259,1318.2819030432 248.97855489373,1315.5679414797 248.26686643587,1313.1547564851 247.55050786824,1310.8499801164 246.80973127591,1309.1310660814 246.0466638158,1307.7541787537 245.24077668346,1306.7009828638 244.37282457277,1305.9431311919 243.4317892744,1305.4312526038 242.40047047644,1305.180796052 241.43533141861,1305.2812388686 240.47715015604,1305.6748644052 239.37871595141,1306.2498171792 238.08502112675,1307.0343019362 236.52585722811,1308.0868600094 234.6337157621,1309.4993488812 232.35921574478,1311.4021164502 229.63852430321,1313.9550602788 226.32946140239,1318.3294614024 " fill="#000000" fill-opacity="1" stroke="#000000"  style="fill-rule:nonzero;" stroke-linejoin="round" /></g>		<g fill="#000000" fill-opacity="1" stroke="none"><!-- points_control:32-->
<polygon points="257.46457251808,1380.4645725181 257.39960543227,1384.4902431659 257.17853104098,1387.6274414904 256.91891465337,1390.177025486 256.69462530268,1392.2511160436 256.49603062253,1393.9098686152 256.28055863352,1395.2100211808 256.0331485432,1396.2386135668 255.74296526853,1397.0672087576 255.1020295721,1397.4439852813 253.93114223014,1397.2190704627 252.16912365487,1396.5621713607 250.29513435217,1395.5441597216 248.13713938887,1394.0733134636 245.74710821415,1392.1634472577 243.19673296557,1389.8206842776 240.54101463512,1387.0583167291 237.78303188023,1383.4809184609 235.14589060248,1380.0847094748 232.58674579614,1376.4783750866 230.21292124677,1372.5077184994 228.08918312041,1368.8872526872 225.9323915285,1365.2589020781 224.62074954732,1362.0994881862 223.67736560872,1359.3239624017 223.08505316367,1356.8369551344 222.79239116435,1354.997220289 222.76252880743,1353.5544151315 222.9967176012,1352.4088479426 223.54098513104,1351.4940034161 224.43747164092,1350.7378307553 225.55374576308,1350.0392428009 226.12191061733,1350.6074076551 225.00563649518,1351.3059956096 224.33751531359,1352.2905335986 223.97240113051,1353.3845314719 223.8195558234,1354.6114421474 223.86304852078,1356.0678776454 224.1432198667,1357.8951218374 224.71979073437,1360.3663875273 225.63578396312,1363.114522602 226.92235229891,1366.2488628485 229.01135888501,1369.8094284518 231.13667891399,1373.4314761666 233.50608544261,1377.3977147331 236.02007450851,1380.9588933809 238.62933103695,1384.3272176176 241.38918654889,1387.9064886429 243.96900909336,1390.5929604054 246.47130398338,1392.8876430269 248.80449006131,1394.7406641361 250.89526952561,1396.1442948951 252.67139395496,1397.0644416608 254.27971886701,1397.5676470995 255.20661650747,1397.5485722167 256.08635777513,1397.4106012641 256.83962446034,1397.0450894839 257.28431549467,1396.213778042 257.54858677792,1394.9624247706 257.75758266486,1393.3140734058 257.98365264886,1391.2417634815 258.24400431915,1388.6929147686 258.46791963766,1385.5585573713 258.53542748192,1381.5354274819 " fill="#000000" fill-opacity="1" stroke="#000000"  style="fill-rule:nonzero;" stroke-linejoin="round" /></g>		<g fill="#000000" fill-opacity="1" stroke="none"><!-- points_control:27-->
<polygon points="227.91087059427,1349.9108705943 229.32343038203,1350.0900214756 230.46505352796,1350.6806255548 231.15846743815,1350.9658853597 231.68124139036,1352.0596003129 231.83305657051,1353.2857469323 231.51322114695,1354.9450610078 230.36843647607,1357.3057077888 229.08077096092,1359.8257108594 227.21448166982,1362.8545121509 224.74479254855,1365.700277043 222.30089272454,1368.477545026 219.87397926595,1371.0523242116 217.62300463371,1373.3209514957 215.43933729995,1375.692920141 214.11028685605,1377.113131166 213.3184147004,1378.1116943999 213.53755241617,1379.060157936 214.39752262594,1379.6167592761 215.73982018499,1379.4726087159 217.90300594555,1379.0020383604 221.03236329841,1378.1362998696 225.1355395149,1376.850770315 229.1854712335,1375.259270743 233.39448787644,1373.482268678 237.55634585969,1371.6957007482 241.52879309997,1370.1160283614 245.87320632039,1368.8732063204 246.12679367961,1369.1267936796 241.7823804592,1370.3696157206 237.91011978735,1372.0494746759 233.75957251116,1373.8473533127 229.54318184091,1375.6169813504 225.46975336246,1377.1849841626 221.2994375576,1378.4033741288 218.14455463403,1379.2435870489 215.92141672054,1379.6542052515 214.44939011394,1379.6686267641 213.97826034962,1379.5008658695 214.23999777234,1379.0332774718 214.87809094459,1377.8809352545 216.12992440252,1376.3835072435 218.30280019714,1374.0007470591 220.53164488007,1371.7099898257 222.97033601222,1369.1469883136 225.4345915001,1366.3900759946 227.91015498631,1363.5501854674 229.85796962344,1360.6029095219 231.18544252535,1358.1227138381 232.34164395199,1355.7734838129 232.73366031808,1354.1863506798 232.59684352888,1352.9752024514 231.98355009342,1351.7909680149 230.90303438435,1351.1186064112 229.74879133423,1350.5153824278 228.08912940573,1350.0891294057 " fill="#000000" fill-opacity="1" stroke="#000000"  style="fill-rule:nonzero;" stroke-linejoin="round" /></g>		</svg>